<svg width="233" height="44" viewBox="0 0 233 44" fill="none" xmlns="http://www.w3.org/2000/svg">
<path fill-rule="evenodd" clip-rule="evenodd" d="M191.883 17.69H192.931V43.1536C192.04 43.1536 191.787 43.0309 191.592 43.3332C191.626 43.4688 191.648 43.5787 191.826 43.5787H201.448V32.9432C201.448 32.6666 201.361 32.5795 201.156 32.5795C200.774 32.5795 200.922 33.807 200.926 34.2192C200.926 34.8284 200.821 35.4467 200.752 35.9862C200.617 37.0251 200.374 38.2617 200.087 39.1823C199.756 40.2257 199.447 41.0153 198.917 41.8526C198.673 42.2383 198.36 42.58 197.969 42.8081C197.512 43.071 197.116 43.1544 196.434 43.1544V30.7548C196.434 30.2547 197.826 30.2509 198.487 33.0477C198.596 33.5122 198.713 34.3541 198.709 34.9459C198.704 35.3096 198.709 35.6778 198.709 36.0415C198.704 36.3658 198.639 36.8917 198.939 36.8917C199.122 36.8917 199.174 36.7121 199.174 36.528V23.8898C199.174 23.7011 199.122 23.5261 198.939 23.5261C198.639 23.5261 198.705 24.0481 198.709 24.3725C198.713 25.9728 198.743 27.8315 197.825 29.1075C197.551 29.4887 197.06 29.9668 196.433 29.9668V17.69C196.925 17.69 197.851 17.6991 198.23 17.8219C199.569 18.256 200.509 22.6229 200.714 23.986L201.04 27.1692H201.332C201.392 27.051 201.449 26.9897 201.449 26.8055V17.3877C201.449 17.2475 201.41 17.2036 201.275 17.2036H192.059C191.584 17.2036 191.584 17.69 191.883 17.69Z" fill="#2B28C4"/>
<path fill-rule="evenodd" clip-rule="evenodd" d="M181.153 28.4445C181.153 30.5707 181.101 32.5567 181.209 34.6435C181.322 36.8091 181.227 37.4403 181.875 39.7862C182.24 41.1236 182.901 42.583 184.054 43.3461C184.459 43.6135 184.958 43.7757 185.467 43.8196H186.003C186.385 43.7848 186.755 43.684 187.081 43.4953C187.664 43.171 188.256 42.1935 188.604 41.6192C188.708 41.4479 188.804 41.3646 188.852 41.1456L189.674 43.2021C189.748 43.3953 189.835 43.8204 190.074 43.8204C190.209 43.8204 190.252 43.7765 190.252 43.6363V31.8467C191.109 31.8467 191.183 31.9346 191.183 31.6058C191.183 31.4171 191.013 31.3648 190.835 31.3648H186.285C186.046 31.3648 185.972 31.4572 185.876 31.6058C186.042 31.9301 185.881 31.8467 186.985 31.8467V41.3866C186.985 42.0617 186.793 43.3332 186.05 43.3332C185.567 43.3332 184.828 43.2847 184.828 42.3603V19.0888C184.828 18.6591 184.919 18.3303 185.054 18.0545C185.328 17.4892 185.685 17.5066 186.111 17.5066C187.611 17.5066 188.298 20.7944 188.507 21.878C188.86 23.7109 188.89 24.7407 189.107 26.3539C189.177 26.876 189.138 27.5155 189.316 27.8974H189.608C189.761 27.2223 189.664 18.7478 189.664 17.3271C189.664 17.1869 189.625 17.1429 189.491 17.1429C189.225 17.1429 188.407 18.647 188.151 18.844C188.025 18.647 187.925 18.4538 187.79 18.2477C187.473 17.7521 186.672 17.0202 185.994 17.0202H185.467C183.562 17.0202 182.423 19.7298 181.931 21.2991C181.309 23.2843 181.153 25.8364 181.153 28.4445Z" fill="#2B28C4"/>
<path fill-rule="evenodd" clip-rule="evenodd" d="M202.675 17.69H203.606V40.9046C203.606 43.7499 202.322 42.799 202.322 43.3945C202.322 43.5347 202.361 43.5787 202.496 43.5787H205.528C205.71 43.5787 205.706 43.4908 205.706 43.3332C205.706 42.7323 204.223 43.6749 204.131 41.8776C203.996 39.2998 204.07 35.1875 204.07 32.5173C204.07 28.3437 204.07 24.1701 204.07 20.0003H204.131C204.131 20.3731 204.287 21.1005 204.357 21.465C205.18 25.7788 205.867 30.3828 206.68 34.7185L208.212 43.5787H210.895V19.3911C210.895 18.1461 211.261 17.9794 211.93 17.6726C212.109 17.5938 212.061 17.6377 212.179 17.5059C212.13 17.2869 212.087 17.2035 211.83 17.2035C211.434 17.2035 209.22 17.1687 208.999 17.23C208.663 17.3308 208.877 17.1815 208.794 17.3877C208.781 17.4096 208.681 17.3308 208.768 17.5938C208.816 17.7339 208.82 17.7036 208.924 17.7339C209.124 17.8044 209.868 17.6066 210.198 18.2954C210.459 18.8304 210.372 19.8647 210.372 20.6671L210.311 35.9809C210.311 35.6035 210.198 35.1216 210.133 34.7708L209.502 31.2329C209.25 29.6372 208.923 28.0982 208.672 26.5115C208.419 24.946 208.115 23.3859 207.836 21.7855C207.697 20.9657 207.567 20.2511 207.419 19.4267L207.11 17.6862C207.071 17.4627 207.084 17.2043 206.871 17.2043H202.848C202.423 17.2035 202.309 17.69 202.675 17.69Z" fill="#2B28C4"/>
<path fill-rule="evenodd" clip-rule="evenodd" d="M222.209 17.4445C222.209 17.7688 222.279 17.69 223.088 17.69C223.092 18.0098 225.28 28.0937 225.502 29.0886L225.828 30.7548V43.1536H224.427C224.179 43.1536 224.179 43.5787 224.427 43.5787H230.665C230.917 43.5787 230.917 43.1536 230.665 43.1536H229.325V30.6935C229.325 30.3601 229.956 27.5981 230.039 27.1859L231.548 20.1276C231.718 19.2684 231.909 18.475 232.518 17.9181C232.713 17.7385 232.97 17.6635 233 17.3309V17.3263C232.596 17.1248 230.708 17.2036 230.143 17.2036C229.96 17.2036 229.817 17.2521 229.773 17.4225C229.647 17.9007 230.395 17.6241 230.765 18.0098C231.539 18.8206 230.895 21.118 230.665 22.1265C230.487 22.9153 230.304 23.7928 230.156 24.5733C230.051 25.1257 229.151 29.1545 229.151 29.5402C229.046 29.3652 228.52 26.8002 228.476 26.5941C228.259 25.581 228.076 24.621 227.833 23.6216C227.433 21.9773 227.102 20.1231 226.702 18.422C226.646 18.1894 226.615 17.8787 226.529 17.69H227.925L228.112 17.4574C228.034 17.3695 227.885 17.2028 227.751 17.2028H222.68C222.47 17.2036 222.209 17.2346 222.209 17.4445Z" fill="#2B28C4"/>
<path fill-rule="evenodd" clip-rule="evenodd" d="M213.113 29.5978C213.113 32.9871 213.083 36.1612 213.81 39.2649C214.24 41.0842 215.006 43.8204 217.311 43.8204H217.372H217.633C218.094 43.8159 218.446 43.7855 218.934 43.5044C219.086 43.4165 219.229 43.3294 219.36 43.2195C221.852 41.1676 221.626 36.7788 221.626 33.5478C221.626 32.9644 221.087 32.6007 221.099 33.6092L221.104 36.165C221.104 36.5378 221.052 36.6341 221.043 36.95C220.991 38.8792 220.599 41.3957 219.19 42.68C218.355 43.443 216.784 43.5787 216.784 41.9344V18.9046C216.784 18.3174 217.12 17.5059 217.663 17.5059C218.333 17.5059 218.559 17.5059 219.073 18.1636C220.164 19.5533 220.912 22.8638 220.987 24.6172C221.026 25.6083 221.113 26.0508 221.104 27.0503C221.095 27.5852 221.012 27.7163 221.391 27.7163C221.6 27.7163 221.626 27.4443 221.626 27.2299V17.2035C221.626 16.5019 220.599 18.0893 220.425 18.3212C220.355 18.4174 220.325 18.4705 220.255 18.5712C220.129 18.7463 220.207 18.7251 219.994 18.7864C219.863 18.2735 218.725 17.0194 217.893 17.0194C217.08 17.0194 216.588 17.0679 215.927 17.6461C213.401 19.8647 213.113 26.2789 213.113 29.5978Z" fill="#2B28C4"/>
<path fill-rule="evenodd" clip-rule="evenodd" d="M174.154 24.4376H174.211C174.211 25.0423 174.289 25.5333 174.333 26.1342C174.372 26.6426 174.476 27.2609 174.503 27.7784C174.624 30.0668 175.063 33.5569 175.268 36.0999C175.307 36.6129 175.399 37.2395 175.438 37.7441H172.519L173.764 27.7966C173.833 27.2927 173.907 26.6434 173.968 26.1266L174.154 24.4376ZM170.188 43.4302V43.2551C170.205 43.0051 170.609 43.071 170.853 42.9308C171.705 42.4489 171.832 40.0461 171.944 39.0247L172.605 33.6365C172.761 32.4438 172.922 31.2557 173.044 30.0895C173.297 27.6913 173.662 25.3105 173.918 22.9168C174.045 21.7416 174.201 20.558 174.362 19.3653C174.406 19.0494 174.497 17.743 174.615 17.6248C174.763 17.4801 176.159 17.568 176.485 17.568C176.502 17.7915 176.572 18.1552 176.594 18.3704L179.46 43.1544C180.191 43.1544 180.222 43.071 180.396 43.3339C180.361 43.4696 180.339 43.5794 180.161 43.5794H175.146C175.011 43.5794 174.972 43.5355 174.972 43.3953C174.972 43.0665 175.046 43.1544 175.903 43.1544C175.903 41.9049 175.66 40.5591 175.611 39.4453C175.594 39.0724 175.502 38.5814 175.494 38.2306H172.462C172.462 39.7961 171.393 42.58 173.058 43.018C173.859 43.2286 173.428 43.5794 173.28 43.5794H170.362C170.227 43.5787 170.197 43.5264 170.188 43.4302Z" fill="#2B28C4"/>
<path fill-rule="evenodd" clip-rule="evenodd" d="M101.358 17.2695C101.358 17.6551 101.319 17.5718 102.376 17.5718V41.5268C102.376 43.237 101.245 42.9036 101.236 43.3946V43.4037C101.249 43.6931 102.045 43.5787 102.615 43.5787C103.154 43.5787 103.694 43.5787 104.233 43.5787C104.446 42.6846 103.772 43.2589 103.259 42.8687C102.993 42.6626 102.859 42.1761 102.854 41.7116V32.4741C102.854 28.3528 102.854 24.2277 102.854 20.1064H102.915C102.915 21.1369 103.124 22.097 103.154 23.0616C103.193 24.302 103.607 28.3399 103.741 29.6508L103.933 31.9308C103.959 32.3696 104.011 32.8909 104.059 33.3736C104.207 34.7769 104.537 38.0207 104.59 39.2967L104.864 42.2777C105.073 43.7287 104.621 43.5794 106.148 43.5794C106.374 43.5794 106.361 43.2726 106.391 43.0399C106.909 38.9626 107.322 34.2934 107.774 30.1941C107.826 29.7296 107.901 29.1636 107.944 28.6726L108.431 24.0997C108.483 23.6306 108.558 23.0608 108.601 22.5781C108.645 22.0742 108.723 21.5347 108.771 21.0612C108.828 20.5262 108.902 20.0397 108.902 19.5002L108.963 43.096C108.337 43.096 107.767 42.9824 107.767 43.337C107.767 43.4772 107.862 43.5779 108.006 43.5779H112.795C113.051 43.5779 113.051 43.096 112.795 43.096H111.894V17.5718C112.52 17.5718 113.09 17.6855 113.09 17.3308C113.09 17.1422 112.89 17.0368 112.69 17.0285H108.954C108.697 17.0414 108.74 17.5809 108.706 17.8575C108.428 20.0761 108.21 22.6448 107.919 24.7892C107.827 25.4552 107.762 26.069 107.701 26.7404C107.641 27.3761 107.523 28.0823 107.467 28.7355C107.371 29.8622 107.045 31.8088 107.045 32.7204C106.85 32.4878 106.953 32.3961 106.884 31.8566L106.628 28.8575C106.584 27.8141 106.314 25.9069 106.267 24.8726C106.228 23.8951 105.997 21.9659 105.914 20.8876L105.615 17.3892C105.606 17.1831 105.645 17.0384 105.445 17.03H101.696C101.519 17.0323 101.358 17.0937 101.358 17.2695Z" fill="#FEFEFE"/>
<path fill-rule="evenodd" clip-rule="evenodd" d="M128.118 29.6417H127.217V17.5718C128.509 17.5718 129.075 17.5673 129.075 18.8387V28.1331C129.075 28.7999 128.762 29.6417 128.118 29.6417ZM123.424 17.0285H127.365C128.361 17.0376 128.975 17.1558 129.631 17.5506C130.822 18.2697 131.575 19.6465 131.937 20.9657C132.633 23.5132 132.246 27.4981 130.153 29.0984C129.827 29.3485 128.987 29.8478 128.596 29.9403L128.67 29.9888C129.493 30.4229 130.153 30.379 131.101 31.58C131.845 32.5226 131.985 33.1758 132.171 34.6049L132.188 40.8039C132.188 41.2774 132.071 42.5535 132.484 42.5535C133.158 42.5535 133.31 41.7685 133.436 41.0365C133.488 40.7387 133.558 40.3265 133.563 40.0196C133.575 39.4627 133.558 39.2786 133.802 39.1119C134.058 39.1823 134.102 39.4096 134.102 39.7165C134.102 41.1502 133.745 42.5353 132.736 43.3468C132.144 43.8249 131.7 43.8204 130.987 43.8204C129.787 43.8204 129.082 42.7459 129.069 41.532C129.056 40.0105 129.186 31.9611 128.977 31.1238C128.729 30.1418 128.064 30.2426 127.216 30.2426V43.0968H127.994C128.255 43.0968 128.255 43.5787 127.994 43.5787H123.206C123.071 43.5787 123.028 43.5347 123.028 43.3991C123.028 43.0089 122.988 43.0968 124.106 43.0968V17.5718H123.145C123.115 17.4362 123.088 17.4316 123.088 17.2695C123.09 17.0937 123.251 17.0323 123.424 17.0285Z" fill="#FEFEFE"/>
<path fill-rule="evenodd" clip-rule="evenodd" d="M134.703 17.2695C134.703 17.6597 134.664 17.5718 135.778 17.5718V43.0968H134.821C134.729 43.4825 134.738 43.2104 134.821 43.5787H138.892C139.257 43.5787 140.032 43.7143 140.032 43.3377C140.032 42.9824 139.484 43.0968 138.892 43.0968V31.2678C138.936 31.3383 138.892 31.233 138.948 31.3906C139.179 32.0657 140.571 38.5981 140.95 40.1151L141.646 43.096C140.684 43.096 140.567 42.9733 140.567 43.3984C140.567 43.534 140.611 43.5779 140.75 43.5779H145.417C145.677 43.5779 145.677 43.096 145.417 43.096H144.76L144.385 41.3555C144.259 40.8031 144.137 40.2242 144.007 39.6279C143.12 35.5771 142.158 31.4906 141.301 27.4526C141.236 27.1503 141.18 26.8737 141.119 26.6108C141.027 26.2206 140.827 25.7561 140.945 25.3787L143.042 19.4601C143.259 18.9032 143.699 17.7681 144.364 17.5968C144.742 17.5006 145.177 17.6756 145.177 17.268C145.177 17.071 144.943 17.0316 144.734 17.027H141.55C141.307 17.0316 141.107 17.0793 141.107 17.3293C141.107 17.8469 142.055 17.1801 142.42 18.2371C142.773 19.2585 142.172 20.8286 141.789 21.8189L139.51 28.4475C139.393 28.7453 139.318 28.9871 139.215 29.2977C139.141 29.5258 139.023 29.9335 138.893 30.1221V17.5718C139.454 17.5718 139.972 17.6771 139.972 17.3309C139.972 17.1907 139.82 17.0369 139.68 17.0285H135.148C134.939 17.0323 134.703 17.0725 134.703 17.2695Z" fill="#FEFEFE"/>
<path fill-rule="evenodd" clip-rule="evenodd" d="M146.016 17.3308C146.016 17.6771 146.534 17.5718 147.095 17.5718V43.0968C145.916 43.0968 145.955 43.0043 145.955 43.3991C145.955 43.5347 145.999 43.5787 146.133 43.5787H154.637V32.7196C154.637 32.5794 154.594 32.5355 154.455 32.5355C154.085 32.5355 154.215 33.4652 154.22 34.1093C154.22 34.6314 154.133 35.3103 154.064 35.8195C153.82 37.582 153.163 41.6722 151.672 42.7027C151.233 43.0005 150.906 43.0975 150.206 43.0975V30.7859C150.206 29.966 151.628 30.3957 152.071 33.1311C152.259 34.2881 152.25 34.9064 152.241 36.0991C152.237 36.5553 152.163 36.8091 152.602 36.8182C152.632 36.6863 152.659 36.6826 152.659 36.5204V23.6049C152.659 23.4427 152.632 23.4382 152.602 23.3025C152.163 23.3154 152.237 23.5746 152.241 24.0262C152.25 25.1006 152.263 26.2357 152.068 27.2352C151.885 28.1687 151.372 29.8221 150.206 29.8221V17.5718C151.903 17.5718 152.094 17.5809 152.642 18.6766C153.334 20.0617 153.812 22.3728 154.034 23.9724C154.104 24.4634 154.243 26.8487 154.339 27.0457C154.6 27.0412 154.639 27.0063 154.639 26.7434V17.0285H146.305C146.168 17.0368 146.016 17.1907 146.016 17.3308Z" fill="#FEFEFE"/>
<path fill-rule="evenodd" clip-rule="evenodd" d="M117.104 24.6308C117.3 24.8589 117.213 25.5212 117.309 26.1743C117.435 27.051 117.63 30.0895 117.705 31.0844C117.797 32.312 118.24 36.5689 118.24 37.6653H115.726L117.104 24.6308ZM113.629 43.0968V43.5173C114.19 43.6492 115.66 43.5787 116.325 43.5787C116.517 43.5787 116.565 43.434 116.565 43.2764C116.565 42.7331 115.364 43.4211 115.364 41.3472L115.568 39.0194C115.603 38.7913 115.66 38.3966 115.664 38.2086H118.357L118.6 41.8867C118.627 42.2026 118.709 42.7808 118.718 43.0968C118.26 43.0968 117.821 43.0043 117.821 43.3377C117.821 43.4779 117.921 43.5787 118.06 43.5787H122.427C122.749 43.5787 122.749 43.0968 122.427 43.0968H121.831L120.522 30.2949C120.3 28.1376 120.1 26.0031 119.865 23.8981C119.743 22.7979 119.678 21.7628 119.538 20.6671L119.195 17.4536C117.098 17.4536 117.585 17.1202 117.359 18.9183L116.807 23.9731C116.55 26.6608 116.128 29.6682 115.906 32.2991C115.854 32.8689 115.771 33.413 115.723 33.9828C115.623 35.1095 115.467 36.2188 115.358 37.3585C115.241 38.5769 115.041 41.1593 114.654 42.2602C114.412 42.952 114.19 42.8247 113.629 43.0968Z" fill="#FEFEFE"/>
<path fill-rule="evenodd" clip-rule="evenodd" d="M102.917 20.1057C102.917 21.1362 103.126 22.0962 103.156 23.0608C103.195 24.3012 103.608 28.3392 103.743 29.65L103.935 31.9301C103.961 32.3688 104.013 32.8901 104.061 33.3728C104.209 34.7761 104.539 38.02 104.592 39.296L104.866 42.2769C105.075 43.728 104.622 43.5787 106.149 43.5787C106.375 43.5787 106.363 43.2718 106.393 43.0392C106.911 38.9618 107.323 34.2927 107.776 30.1933C107.828 29.7289 107.902 29.1628 107.941 28.6718L108.433 24.0989C108.489 23.6299 108.559 23.0601 108.603 22.5774C108.647 22.0735 108.725 21.534 108.773 21.0604C108.829 20.5254 108.904 20.039 108.904 19.4995L108.965 43.0952C108.338 43.0952 107.768 42.9816 107.768 43.3362C107.768 43.4764 107.864 43.5772 108.008 43.5772H112.796C113.053 43.5772 113.053 43.0952 112.796 43.0952H111.896V17.5718C112.522 17.5718 113.092 17.6855 113.092 17.3308C113.092 17.1422 112.892 17.0368 112.692 17.0285H108.955C108.699 17.0414 108.742 17.5809 108.707 17.8575C108.429 20.0761 108.211 22.6448 107.92 24.7892C107.829 25.4552 107.764 26.069 107.703 26.7404C107.642 27.3761 107.525 28.0823 107.469 28.7355C107.373 29.8622 107.047 31.8088 107.047 32.7166C106.851 32.4885 106.955 32.3968 106.886 31.8573L106.63 28.8582C106.586 27.8148 106.316 25.9076 106.269 24.8733C106.23 23.8958 105.999 21.9666 105.916 20.8884L105.616 17.3899C105.607 17.1838 105.647 17.0391 105.446 17.0308H101.697C101.524 17.0353 101.362 17.0967 101.362 17.2717C101.362 17.6574 101.323 17.5741 102.38 17.5741V41.529C102.38 43.2392 101.249 42.9058 101.24 43.3968V43.4059C101.253 43.6954 102.049 43.581 102.619 43.581H104.237C104.45 42.6868 103.776 43.2612 103.262 42.871C102.997 42.6649 102.858 42.1784 102.858 41.7139V32.4741V20.1057H102.917Z" fill="#FEFEFE"/>
<path fill-rule="evenodd" clip-rule="evenodd" d="M117.361 18.9176L116.808 23.9724C116.552 26.6601 116.129 29.6675 115.907 32.2983C115.856 32.8682 115.773 33.4122 115.725 33.982C115.625 35.1088 115.468 36.2181 115.359 37.3577C115.247 38.5762 115.042 41.1585 114.655 42.2595C114.411 42.9521 114.19 42.8248 113.629 43.0968V43.5173C114.19 43.6492 115.66 43.5787 116.325 43.5787C116.517 43.5787 116.565 43.434 116.565 43.2764C116.565 42.7331 115.364 43.4211 115.364 41.3472L115.573 39.0194C115.603 38.7914 115.66 38.3966 115.665 38.2087H118.357L118.601 41.8867C118.627 42.2027 118.71 42.7808 118.718 43.0968C118.261 43.0968 117.822 43.0043 117.822 43.3377C117.822 43.4779 117.922 43.5787 118.061 43.5787H122.428C122.75 43.5787 122.75 43.0968 122.428 43.0968H121.832L120.522 30.2949C120.301 28.1376 120.101 26.0031 119.865 23.8981C119.744 22.7979 119.678 21.7628 119.539 20.6672L119.196 17.4536C117.1 17.4536 117.587 17.1202 117.361 18.9176ZM117.104 24.6309C117.299 24.8589 117.213 25.5212 117.308 26.1744C117.434 27.051 117.63 30.0896 117.704 31.0845C117.796 32.312 118.239 36.5689 118.239 37.6654H115.726L117.104 24.6309Z" fill="#FEFEFE"/>
<path fill-rule="evenodd" clip-rule="evenodd" d="M124.108 17.5718V43.0968C122.99 43.0968 123.029 43.0089 123.029 43.3991C123.029 43.5347 123.073 43.5787 123.208 43.5787H127.996C128.257 43.5787 128.257 43.0968 127.996 43.0968H127.217V30.2426C128.065 30.2426 128.732 30.1418 128.979 31.1238C129.188 31.9611 129.057 40.0105 129.071 41.532C129.083 42.7467 129.788 43.8204 130.989 43.8204C131.702 43.8204 132.146 43.8249 132.738 43.3468C133.743 42.536 134.104 41.1502 134.104 39.7165C134.104 39.4096 134.06 39.1816 133.804 39.1119C133.56 39.2786 133.577 39.4627 133.565 40.0196C133.56 40.3265 133.491 40.7387 133.438 41.0365C133.312 41.7685 133.16 42.5535 132.486 42.5535C132.072 42.5535 132.19 41.2774 132.19 40.8039L132.173 34.6049C131.986 33.1758 131.847 32.5226 131.103 31.58C130.155 30.379 129.494 30.4229 128.672 29.9888L128.598 29.9403C128.99 29.8478 129.829 29.3485 130.155 29.0984C132.247 27.4981 132.635 23.5132 131.939 20.9657C131.578 19.6457 130.825 18.2697 129.633 17.5506C128.976 17.1558 128.363 17.0376 127.367 17.0285H123.426C123.253 17.033 123.091 17.0944 123.091 17.2695C123.091 17.4316 123.117 17.4362 123.147 17.5718H124.108ZM127.218 29.6417V17.5718C128.51 17.5718 129.076 17.5673 129.076 18.8387V28.1331C129.076 28.7991 128.762 29.641 128.119 29.641H127.218V29.6417Z" fill="#FEFEFE"/>
<path fill-rule="evenodd" clip-rule="evenodd" d="M135.777 17.5718V43.0968H134.82C134.728 43.4825 134.737 43.2104 134.82 43.5787H138.891C139.257 43.5787 140.031 43.7143 140.031 43.3377C140.031 42.9824 139.483 43.0968 138.891 43.0968V31.2678C138.935 31.3383 138.891 31.233 138.948 31.3906C139.179 32.0657 140.57 38.5981 140.949 40.1151L141.645 43.096C140.684 43.096 140.566 42.9733 140.566 43.3984C140.566 43.534 140.61 43.5779 140.749 43.5779H145.416C145.677 43.5779 145.677 43.096 145.416 43.096H144.759L144.385 41.3555C144.258 40.8031 144.136 40.2242 144.006 39.6279C143.119 35.5771 142.158 31.4906 141.301 27.4526L141.118 26.6108C141.026 26.216 140.826 25.7561 140.944 25.3787L143.041 19.4601C143.258 18.9032 143.698 17.7681 144.363 17.5968C144.742 17.5006 145.177 17.6756 145.177 17.268C145.177 17.071 144.942 17.0316 144.733 17.027H141.55C141.306 17.0316 141.106 17.0793 141.106 17.3293C141.106 17.8469 142.054 17.1801 142.419 18.2371C142.772 19.2585 142.171 20.8286 141.789 21.8189L139.509 28.4475C139.392 28.7453 139.318 28.9871 139.214 29.2977C139.14 29.5258 139.022 29.9335 138.892 30.1221V17.5718C139.453 17.5718 139.971 17.6771 139.971 17.3309C139.971 17.1907 139.819 17.0369 139.679 17.0285H135.147C134.938 17.0331 134.703 17.0725 134.703 17.2695C134.703 17.6597 134.664 17.5718 135.777 17.5718Z" fill="#FEFEFE"/>
<path fill-rule="evenodd" clip-rule="evenodd" d="M147.095 17.5718V43.0968C145.916 43.0968 145.955 43.0043 145.955 43.3991C145.955 43.5347 145.999 43.5787 146.133 43.5787H154.637V32.7151C154.637 32.5794 154.594 32.5355 154.455 32.5355C154.085 32.5355 154.216 33.4652 154.216 34.1093C154.22 34.6314 154.133 35.3103 154.064 35.8195C153.82 37.582 153.163 41.6768 151.672 42.7027C151.233 43.0005 150.906 43.0975 150.206 43.0975V30.7859C150.206 29.966 151.628 30.3957 152.072 33.1311C152.259 34.2881 152.25 34.9064 152.241 36.0991C152.237 36.5553 152.163 36.8091 152.602 36.8182C152.632 36.6863 152.659 36.6826 152.659 36.5204V23.6049C152.659 23.4427 152.632 23.4382 152.602 23.3025C152.163 23.3154 152.237 23.5746 152.241 24.0262C152.25 25.1044 152.263 26.2357 152.068 27.2314C151.885 28.1694 151.372 29.8221 150.206 29.8221V17.5718C151.903 17.5718 152.094 17.5809 152.642 18.6766C153.334 20.0617 153.812 22.3728 154.034 23.9724C154.104 24.4634 154.243 26.8487 154.339 27.0457C154.6 27.0366 154.639 27.0063 154.639 26.7434V17.0285H146.305C146.17 17.0376 146.018 17.1907 146.018 17.3308C146.017 17.6771 146.534 17.5718 147.095 17.5718Z" fill="#FEFEFE"/>
<path fill-rule="evenodd" clip-rule="evenodd" d="M30.1177 17.6946H31.2047V43.1536H29.8734C29.8426 43.2855 29.8253 43.2892 29.8125 43.4476V43.4567C29.9215 43.531 29.9215 43.5794 30.0561 43.5794H39.9905V32.956C39.9905 32.6757 39.8988 32.5878 39.686 32.5878C39.2899 32.5878 39.4425 33.8244 39.4425 34.2366C39.4515 36.3499 38.5592 40.0893 37.3721 41.8564C36.7286 42.8164 36.0152 43.1544 34.7801 43.1544V31.0011C34.7801 30.1464 35.6198 30.5715 35.9152 30.8958C36.6895 31.7247 36.9376 32.9523 37.103 34.0351L37.203 36.1309C37.1985 36.6879 37.0504 36.8629 37.5638 36.8629C37.5984 36.7273 37.6247 36.7227 37.6247 36.5606V23.7973C37.6247 23.6306 37.5984 23.6306 37.5638 23.4905C37.2767 23.4905 37.2503 23.4291 37.203 23.6746C37.194 23.7185 37.2421 26.2789 36.9376 27.4973C36.6723 28.5673 36.0242 29.9615 34.7801 29.9615V17.6946C36.3896 17.6946 36.9331 17.6067 37.5856 18.7114C38.6336 20.4868 39.2124 23.398 39.4342 25.5159C39.4951 26.0811 39.447 26.6555 39.565 27.1556H39.8695C39.9304 27.0329 39.9912 26.976 39.9912 26.7873V17.3877C39.9912 17.2475 39.9476 17.2036 39.8086 17.2036H30.2959C29.8042 17.2036 29.8042 17.6946 30.1177 17.6946Z" fill="white"/>
<path fill-rule="evenodd" clip-rule="evenodd" d="M84.9302 17.6946H86.0172V43.1536H84.6859C84.6513 43.2892 84.6378 43.2892 84.625 43.4559C84.734 43.5302 84.734 43.5787 84.8686 43.5787H94.7985V32.9341C94.794 32.6711 94.703 32.5878 94.4985 32.5878C94.1024 32.5878 94.255 33.8244 94.255 34.2366C94.2595 35.5081 93.737 38.1602 93.3852 39.2217C92.9326 40.5766 92.4019 42.0761 91.1931 42.8126C90.7541 43.0847 90.2669 43.1544 89.5926 43.1544V31.0011C89.5926 29.8395 91.2713 30.6897 91.7674 33.1447C91.9373 33.9737 92.02 35.2489 92.0155 36.1302C92.011 36.6871 91.8629 36.8622 92.3763 36.8622C92.4109 36.7265 92.4372 36.722 92.4372 36.5598V23.7973C92.4372 23.6306 92.4109 23.6306 92.3763 23.4905C91.9629 23.4905 92.011 23.3851 92.0155 24.2838C92.0155 24.6649 92.0328 25.0552 91.9809 25.4106C91.929 25.7568 91.9546 26.1994 91.911 26.5024C91.7283 27.8353 91.2194 29.9615 89.5926 29.9615V17.6946C91.2066 17.6946 91.7456 17.6067 92.3981 18.7114C93.4506 20.4868 94.0249 23.398 94.2467 25.5159C94.3076 26.0811 94.264 26.6555 94.3775 27.1556H94.682C94.7429 27.0419 94.7947 26.9806 94.7992 26.8093V17.3703C94.7992 17.243 94.7511 17.2036 94.6166 17.2036H85.1084C84.6167 17.2036 84.6167 17.6946 84.9302 17.6946Z" fill="white"/>
<path fill-rule="evenodd" clip-rule="evenodd" d="M72.6953 17.3877V28.2558C72.6953 28.6764 73.2524 28.931 73.2433 28.0149C73.2343 27.3269 73.396 26.1516 73.4997 25.525C73.8132 23.6397 74.3695 19.8564 75.3219 18.2689C75.5963 17.8128 75.8918 17.6946 76.5706 17.6946V43.1536H75.0566C74.8002 43.1536 74.8002 43.5787 75.0566 43.5787H81.4765C81.6592 43.5787 81.681 43.4734 81.7201 43.3332C81.5111 43.0218 81.1593 43.1536 80.2023 43.1536V17.6946C80.8984 17.6946 81.1503 17.765 81.4375 18.3432C81.8118 19.1017 81.9201 19.4919 82.1509 20.2458L82.6944 22.3895C83.0688 24.2088 83.1943 25.0817 83.4514 26.8745C83.5296 27.4398 83.4168 28.0406 83.5341 28.5582C83.5649 28.5673 84.0212 28.7643 84.0212 28.374V17.3869C84.0212 17.2467 83.9776 17.2028 83.8386 17.2028H72.878C72.7389 17.2035 72.6953 17.2475 72.6953 17.3877Z" fill="white"/>
<path fill-rule="evenodd" clip-rule="evenodd" d="M51.3125 17.3877V28.2558C51.3125 28.6764 51.8733 28.931 51.8605 28.0149C51.856 27.6375 51.8778 27.4314 51.9086 27.1427C52.1522 24.9817 52.9047 19.992 53.9444 18.2689C54.2143 17.8128 54.5097 17.6946 55.193 17.6946V43.1536H53.679C53.4182 43.1536 53.4182 43.5787 53.679 43.5787H60.0945C60.2817 43.5787 60.3035 43.4734 60.3381 43.3332C60.1336 43.0218 59.781 43.1536 58.824 43.1536V17.6946C59.5156 17.6946 59.772 17.765 60.0546 18.3432C60.968 20.1799 61.5379 23.3715 61.8596 25.3143C61.9423 25.8144 61.9904 26.3183 62.0686 26.8752C62.1513 27.4405 62.034 28.0414 62.1558 28.5589C62.1821 28.568 62.6384 28.765 62.6384 28.3748V17.3877C62.6384 17.2475 62.5948 17.2036 62.4603 17.2036H51.4952C51.3561 17.2036 51.3125 17.2475 51.3125 17.3877Z" fill="white"/>
<path fill-rule="evenodd" clip-rule="evenodd" d="M41.0781 22.272C41.0781 24.4732 41.5698 25.3977 42.3087 27.1382L43.0131 28.6241C43.0477 28.7029 43.0868 28.7908 43.1259 28.8741L46.0532 35.0209C46.7967 36.8576 47.2538 37.923 47.2538 40.2204C47.2538 40.869 47.0666 41.5798 46.832 41.992C46.6058 42.3822 46.0186 42.9695 45.5578 42.9695H45.0752C42.8004 42.9695 41.6216 36.1999 41.6262 33.8721C41.6262 33.416 41.7179 32.3461 41.3217 32.3461C41.1826 32.3461 41.139 32.3855 41.139 32.5256V43.5166C41.139 44.1212 42.1261 43.0384 42.2742 42.8899C42.4877 42.6747 42.9748 42.1882 43.2575 42.114C43.5318 42.5216 43.8446 42.9467 44.2626 43.2362C44.9497 43.7143 45.3285 43.806 45.9066 43.8196H46.6246C47.6725 43.7712 48.7513 42.921 49.3346 42.1314C51.2005 39.6059 50.3179 35.577 49.2301 32.9818C48.5475 31.3466 48.0995 30.4434 47.2989 28.8211C46.6163 27.4488 45.9465 26.1114 45.3195 24.7134C44.7542 23.4374 43.262 20.0488 44.2535 18.3871C44.8497 17.3831 45.9848 17.3786 46.7892 18.225C47.898 19.3911 48.4859 22.7585 48.755 24.3626C48.9114 25.3143 48.9896 26.2744 49.1941 27.1556H49.4985C49.5684 27.0063 49.6158 26.8881 49.6158 26.6646V17.2035C49.6158 16.6027 48.6242 17.7294 47.4365 18.3651C47.0538 17.7908 46.1141 17.0194 45.2571 17.0194C44.4046 17.0194 43.9085 17.0717 43.1778 17.6112C41.7697 18.6546 41.0781 20.2724 41.0781 22.272Z" fill="white"/>
<path fill-rule="evenodd" clip-rule="evenodd" d="M66.2755 24.7748H66.3973C66.3973 26.0508 67.1889 32.706 67.3062 34.4814C67.358 35.2922 67.6061 37.0372 67.6061 37.7169H64.6397L66.2755 24.7748ZM62.2168 43.1536V43.5173C62.8039 43.653 64.7006 43.5787 65.4268 43.5787C65.6658 43.5787 65.7621 43.237 65.4787 43.1051C65.1434 42.9475 64.2127 43.0309 64.2127 41.4389C64.2127 40.6236 64.5781 38.7512 64.5781 38.2079H67.7271C67.7271 38.6201 67.7572 39.0626 67.8144 39.462L68.1496 43.1536H67.1844C67.119 43.4302 67.119 43.2984 67.1844 43.5787L72.2738 43.5833C72.6173 43.5833 72.6827 43.6143 72.7564 43.3332C72.5782 43.0703 72.5429 43.1536 71.7866 43.1536C71.7866 42.6452 70.2598 30.3426 70.2598 30.3426C69.9989 28.2293 69.7208 26.0546 69.4855 23.9201L68.8067 18.3129C68.7067 17.4665 69.0593 17.6287 66.9408 17.6287C66.6491 17.6287 66.6491 18.5584 66.5664 19.1456L65.9229 24.1739C65.6486 26.432 65.323 28.659 65.0659 30.8822C64.8134 33.1356 64.4615 35.3581 64.2135 37.5941C64.1526 38.1594 64.0789 38.6944 64 39.2687C63.8609 40.2417 63.791 41.5836 63.3692 42.4209C63.0264 43.1013 62.5821 42.974 62.2168 43.1536Z" fill="white"/>
<path fill-rule="evenodd" clip-rule="evenodd" d="M34.7808 29.9615V17.6946C36.3903 17.6946 36.9339 17.6067 37.5864 18.7114C38.6343 20.4868 39.2132 23.398 39.435 25.5159C39.4958 26.0811 39.4477 26.6555 39.5658 27.1556H39.8702C39.9311 27.0374 39.992 26.976 39.992 26.7873V17.3877C39.992 17.2475 39.9484 17.2036 39.8093 17.2036H30.2959C29.8042 17.2036 29.8042 17.6946 30.1177 17.6946H31.2047V43.1536H29.8734C29.8426 43.2855 29.8253 43.2892 29.8125 43.4476V43.4567C29.9215 43.531 29.9215 43.5794 30.0561 43.5794H39.9905V32.956C39.9905 32.6757 39.8988 32.5878 39.686 32.5878C39.2899 32.5878 39.4425 33.8244 39.4425 34.2366C39.4515 36.3499 38.5592 40.0893 37.3721 41.8564C36.7286 42.8164 36.0152 43.1544 34.7801 43.1544V31.0011C34.7801 30.1464 35.6198 30.5715 35.9152 30.8958C36.6895 31.7247 36.9376 32.9523 37.103 34.0351L37.203 36.1309C37.1985 36.6879 37.0504 36.8629 37.5638 36.8629C37.5984 36.7273 37.6247 36.7227 37.6247 36.5606V23.7973C37.6247 23.6306 37.5984 23.6306 37.5638 23.4905C37.2767 23.4905 37.2504 23.4291 37.203 23.6746C37.194 23.7185 37.2421 26.2789 36.9376 27.4973C36.6723 28.5673 36.0242 29.9615 34.7808 29.9615Z" fill="white"/>
<path fill-rule="evenodd" clip-rule="evenodd" d="M42.3083 27.1382L43.0127 28.6241C43.0473 28.7029 43.0864 28.7908 43.1255 28.8742L46.0528 35.0209C46.7963 36.8576 47.2533 37.923 47.2533 40.2204C47.2533 40.8691 47.0661 41.5798 46.8316 41.992C46.6053 42.3823 46.0182 42.9695 45.5574 42.9695H45.0747C42.7999 42.9695 41.6212 36.1999 41.6257 33.8722C41.6257 33.416 41.7174 32.3461 41.3212 32.3461C41.1822 32.3461 41.1386 32.3855 41.1386 32.5257V43.5166C41.1386 44.1213 42.1256 43.0385 42.2737 42.8899C42.4872 42.6747 42.9743 42.1883 43.257 42.114C43.5314 42.5217 43.8441 42.9468 44.2621 43.2362C44.9492 43.7143 45.3281 43.806 45.9062 43.8197H46.6241C47.6721 43.7712 48.7508 42.921 49.3342 42.1314C51.2 39.6059 50.3175 35.5771 49.2297 32.9818C48.5471 31.3466 48.0991 30.4434 47.2984 28.8211C46.6158 27.4489 45.946 26.1115 45.3191 24.7135C44.7538 23.4374 43.2615 20.0488 44.2531 18.3871C44.8492 17.3831 45.9844 17.3786 46.7887 18.225C47.9021 19.3911 48.4855 22.7585 48.7546 24.3626C48.9109 25.3143 48.9891 26.2744 49.1936 27.1556H49.4981C49.568 27.0063 49.6153 26.8881 49.6153 26.6646V17.2036C49.6153 16.6027 48.6238 17.734 47.436 18.3606C47.0534 17.7908 46.1137 17.0187 45.2567 17.0187C44.4042 17.0187 43.908 17.071 43.1773 17.6105C41.7678 18.6539 41.0762 20.2716 41.0762 22.2705C41.0777 24.4725 41.5686 25.3977 42.3083 27.1382Z" fill="white"/>
<path fill-rule="evenodd" clip-rule="evenodd" d="M55.1923 17.6946V43.1536H53.6783C53.4174 43.1536 53.4174 43.5787 53.6783 43.5787H60.0937C60.2809 43.5787 60.3027 43.4734 60.3373 43.3332C60.1328 43.0218 59.7803 43.1536 58.8233 43.1536V17.6946C59.5149 17.6946 59.7712 17.765 60.0539 18.3432C60.9673 20.1799 61.5371 23.3715 61.8589 25.3143C61.9416 25.8144 61.9897 26.3183 62.0678 26.8752C62.1505 27.4405 62.0333 28.0414 62.155 28.5589C62.1814 28.568 62.6377 28.765 62.6377 28.3748V17.3877C62.6377 17.2475 62.5941 17.2036 62.4595 17.2036H51.4952C51.3561 17.2036 51.3125 17.2475 51.3125 17.3877V28.2558C51.3125 28.6764 51.8733 28.931 51.8605 28.0149C51.856 27.6375 51.8778 27.4314 51.9086 27.1427C52.1522 24.9817 52.9047 19.992 53.9444 18.2689C54.2135 17.8128 54.5097 17.6946 55.1923 17.6946Z" fill="white"/>
<path fill-rule="evenodd" clip-rule="evenodd" d="M66.3973 24.7748C66.3973 26.0508 67.1889 32.706 67.3062 34.4814C67.358 35.2922 67.6061 37.0372 67.6061 37.7169H64.6397L66.2755 24.7748H66.3973ZM65.9229 24.1747C65.6486 26.4327 65.323 28.6597 65.0659 30.8829C64.8134 33.1364 64.4615 35.3588 64.2135 37.5949C64.1526 38.1602 64.0789 38.6951 64 39.2695C63.8609 40.2424 63.791 41.5844 63.3692 42.4217C63.0257 43.1013 62.5821 42.974 62.2168 43.1536V43.5173C62.8039 43.6575 64.7006 43.5787 65.4268 43.5787C65.6658 43.5787 65.7621 43.237 65.4787 43.1051C65.1434 42.9475 64.2127 43.0309 64.2127 41.4389C64.2127 40.6236 64.5781 38.7512 64.5781 38.2034H67.7271C67.7271 38.6156 67.7572 39.0626 67.8144 39.462L68.1496 43.1536H67.1844C67.119 43.4302 67.119 43.2984 67.1844 43.5787L72.2738 43.5833C72.6173 43.5833 72.6827 43.6143 72.7564 43.3332C72.5782 43.0703 72.5429 43.1536 71.7866 43.1536C71.7866 42.6452 70.2598 30.3426 70.2598 30.3426C69.9989 28.2293 69.7208 26.0546 69.4855 23.9201L68.8067 18.3129C68.7067 17.4665 69.0593 17.6287 66.9408 17.6287C66.6491 17.6287 66.6491 18.5584 66.5664 19.1456L65.9229 24.1747Z" fill="white"/>
<path fill-rule="evenodd" clip-rule="evenodd" d="M76.5706 17.6946V43.1536H75.0566C74.8002 43.1536 74.8002 43.5787 75.0566 43.5787H81.4765C81.6592 43.5787 81.681 43.4734 81.7201 43.3332C81.5111 43.0218 81.1593 43.1536 80.2023 43.1536V17.6946C80.8984 17.6946 81.1503 17.765 81.4375 18.3432C81.8118 19.1017 81.9201 19.4919 82.1509 20.2458L82.6944 22.3895C83.0688 24.2088 83.1943 25.0817 83.4514 26.8745C83.5296 27.4398 83.4168 28.0406 83.5341 28.5582C83.5649 28.5673 84.0212 28.7643 84.0212 28.374V17.3869C84.0212 17.2467 83.9776 17.2028 83.8386 17.2028H72.878C72.7389 17.2028 72.6953 17.2467 72.6953 17.3869V28.2558C72.6953 28.6764 73.2524 28.931 73.2433 28.0149C73.2343 27.3269 73.396 26.1516 73.4997 25.525C73.8087 23.6397 74.3695 19.8564 75.3219 18.2689C75.5963 17.8128 75.8918 17.6946 76.5706 17.6946Z" fill="white"/>
<path fill-rule="evenodd" clip-rule="evenodd" d="M71.7866 43.1536C71.7866 42.6452 70.2598 30.3426 70.2598 30.3426C69.9989 28.2293 69.7208 26.0546 69.4855 23.9201L68.8067 18.3129C68.7067 17.4665 69.0593 17.6287 66.9408 17.6287C66.6491 17.6287 66.6491 18.5584 66.5664 19.1456L65.9229 24.1739C65.6486 26.432 65.323 28.659 65.0659 30.8822C64.8134 33.1356 64.4615 35.3581 64.2135 37.5941C64.1526 38.1594 64.0789 38.6944 64 39.2687C63.8609 40.2417 63.791 41.5836 63.3692 42.4209C63.0257 43.1006 62.5821 42.9733 62.2168 43.1529V43.5166C62.8039 43.6568 64.7006 43.578 65.4268 43.578C65.6658 43.578 65.7621 43.2362 65.4787 43.1044C65.1434 42.9468 64.2127 43.0301 64.2127 41.4381C64.2127 40.6228 64.5781 38.7504 64.5781 38.2026H67.7271C67.7271 38.6148 67.7572 39.0619 67.8144 39.4612L68.1496 43.1529H67.1851C67.1197 43.4294 67.1197 43.2976 67.1851 43.578L72.2745 43.5825C72.6181 43.5825 72.6835 43.6136 72.7571 43.3325C72.5782 43.0703 72.5436 43.1536 71.7866 43.1536ZM66.398 24.7748C66.398 26.0508 67.1896 32.706 67.3069 34.4814C67.3588 35.2922 67.6069 37.0372 67.6069 37.7169H64.6404L66.2763 24.7748H66.398Z" fill="white"/>
<path fill-rule="evenodd" clip-rule="evenodd" d="M23.9794 14.7136C23.9794 22.9472 23.9486 31.1852 23.9794 39.4188C23.9839 40.028 23.8795 40.4712 23.6577 40.8698C22.518 42.9346 19.3471 42.4967 18.9517 40.0408C18.8254 39.2695 19.0998 37.2395 18.8299 36.6561C18.4601 35.8627 17.1159 36.0817 17.1159 37.0114V39.7211C17.1159 40.3743 17.2896 40.9312 17.4723 41.3957C17.6677 41.8821 18.0376 42.4482 18.4375 42.799C18.9637 43.2506 19.5118 43.6408 20.1989 43.8333C20.5341 43.9257 20.8777 43.9826 21.2213 44H21.6821C22.5737 43.9561 23.4434 43.6492 24.1486 43.0703C24.2486 42.9869 24.2831 42.9346 24.3967 42.8513C24.7011 42.6103 25.0319 42.1367 25.2191 41.8033C25.8107 40.7289 25.7716 39.8916 25.7716 38.6163V16.0814C25.7716 15.038 25.5581 13.7006 26.4978 13.0739C26.994 12.7451 27.2721 12.7716 28.0592 12.7716H50.4118C50.3946 12.57 50.0638 12.2366 49.9375 12.079L47.2409 9.11552L47.2064 9.08445L46.5584 8.46614C46.4975 8.41386 46.4666 8.3737 46.4103 8.31687L46.093 8.03196C46.0231 7.96604 45.9975 7.96149 45.9276 7.90012C45.1097 7.1636 44.2309 6.46649 43.3221 5.84363C43.2003 5.76483 43.1131 5.69436 42.9913 5.61101L41.9306 4.91011C40.9563 4.2918 39.9474 3.75305 38.916 3.23097C38.3981 2.97258 37.8636 2.72253 37.3155 2.50355C36.7675 2.28002 36.2368 2.06103 35.6406 1.85038C33.5222 1.10477 31.3391 0.539505 29.0598 0.262933L26.9331 0.0659227C26.5933 0.0348557 26.1716 0.0128815 25.719 0H23.7486C23.4134 0.0128815 23.1051 0.031067 22.848 0.0613763L21.7911 0.131845C20.3425 0.259144 18.8592 0.500103 17.4632 0.85548L16.1191 1.20631C14.7968 1.55259 13.9751 1.92994 12.7828 2.35503C12.6219 2.40732 12.5302 2.45581 12.3784 2.51719L11.5958 2.86347C11.4612 2.92939 11.3349 2.98168 11.2086 3.04305L9.36459 3.99022C8.80379 4.26603 7.33787 5.17759 6.75526 5.60722C5.76745 6.33919 5.36301 6.61576 4.35416 7.43108C4.24515 7.52352 4.17599 7.58869 4.0715 7.68113L3.76253 7.93952C3.54903 8.10167 3.37086 8.32066 3.1709 8.47902L2.57927 9.01853C2.2921 9.29889 1.85758 9.69822 1.60048 10.0051L0.391664 11.3645C0.243568 11.5478 0 11.785 0 12.1002V12.1093C0 12.3813 0.060892 12.6178 0.256348 12.8155C0.682592 13.2497 1.3306 13.1133 1.67867 12.6579C1.98764 12.2503 2.34848 11.86 2.70932 11.4963C2.81381 11.391 2.8702 11.3296 2.97018 11.2197L3.24006 10.9257L3.50543 10.6583C3.5573 10.606 3.58812 10.5749 3.63999 10.5264L3.66179 10.509L3.71366 10.465L3.73095 10.4522L4.06999 10.1233C4.18727 10.0051 4.23989 9.96115 4.36543 9.85582C4.65711 9.61032 4.92248 9.31632 5.22243 9.07991C5.3352 8.99656 5.42691 8.90866 5.5314 8.82152L6.1313 8.32596C6.2358 8.24716 6.33578 8.17669 6.43576 8.09789L7.06197 7.6243C7.79719 7.06282 8.5933 6.56348 9.38038 6.08535C10.072 5.66481 10.7937 5.292 11.5161 4.92829L11.8724 4.74871C11.9987 4.68279 12.1205 4.63884 12.2596 4.56913C13.2429 4.06902 14.3645 3.68334 15.4087 3.33251C16.3785 3.00365 17.4008 2.74905 18.4059 2.50809C18.554 2.47324 18.7367 2.44672 18.8758 2.41565C19.5065 2.27092 20.1026 2.18303 20.7507 2.09589L21.7204 1.97314C22.4308 1.89433 23.0706 1.84129 23.7795 1.84129C23.993 1.84129 24.0576 1.80643 24.2756 1.80643C24.741 1.80643 25.3153 1.77158 25.7461 1.82841C26.1813 1.88978 26.6857 1.84129 27.1075 1.89888C27.8472 1.99511 28.5734 1.98677 29.2951 2.1315C30.113 2.29366 30.9264 2.39443 31.7225 2.59599C33.641 3.087 34.9761 3.49466 36.7983 4.26603L37.7816 4.70855C38.5469 5.02452 39.2603 5.47159 39.9865 5.86182C40.4 6.08535 40.7909 6.34373 41.1781 6.60288L41.7652 6.98023C42.335 7.36592 42.9131 7.76069 43.4401 8.19866L45.763 10.2067C45.9893 10.4393 46.3238 10.6674 46.4982 10.9341C40.2436 10.9341 33.9845 10.9689 27.7254 10.9341C27.3774 10.9295 26.812 10.9864 26.5377 11.0697C25.4807 11.4031 24.6327 12.104 24.211 13.1739C24.0012 13.7051 23.9794 13.9726 23.9794 14.7136Z" fill="#FEFEFE"/>
<path fill-rule="evenodd" clip-rule="evenodd" d="M34.7808 29.9615V17.6946C36.3903 17.6946 36.9339 17.6067 37.5864 18.7114C38.6343 20.4868 39.2132 23.398 39.435 25.5159C39.4958 26.0811 39.4477 26.6555 39.5658 27.1556H39.8702C39.9311 27.0374 39.992 26.976 39.992 26.7873V17.3877C39.992 17.2475 39.9484 17.2036 39.8093 17.2036H30.2959C29.8042 17.2036 29.8042 17.6946 30.1177 17.6946H31.2047V43.1536H29.8734C29.8426 43.2855 29.8253 43.2892 29.8125 43.4476V43.4567C29.9215 43.531 29.9215 43.5794 30.0561 43.5794H39.9905V32.956C39.9905 32.6757 39.8988 32.5878 39.686 32.5878C39.2899 32.5878 39.4425 33.8244 39.4425 34.2366C39.4515 36.3499 38.5592 40.0893 37.3721 41.8564C36.7286 42.8164 36.0152 43.1544 34.7801 43.1544V31.0011C34.7801 30.1464 35.6198 30.5715 35.9152 30.8958C36.6895 31.7247 36.9376 32.9523 37.103 34.0351L37.203 36.1309C37.1985 36.6879 37.0504 36.8629 37.5638 36.8629C37.5984 36.7273 37.6247 36.7227 37.6247 36.5606V23.7973C37.6247 23.6306 37.5984 23.6306 37.5638 23.4905C37.2767 23.4905 37.2504 23.4291 37.203 23.6746C37.194 23.7185 37.2421 26.2789 36.9376 27.4973C36.6723 28.5673 36.0242 29.9615 34.7808 29.9615Z" fill="white"/>
<path fill-rule="evenodd" clip-rule="evenodd" d="M41.0781 22.272C41.0781 24.4732 41.5698 25.3977 42.3087 27.1382L43.0131 28.6241C43.0477 28.7029 43.0868 28.7908 43.1259 28.8741L46.0532 35.0209C46.7967 36.8576 47.2538 37.923 47.2538 40.2204C47.2538 40.869 47.0666 41.5798 46.832 41.992C46.6058 42.3822 46.0186 42.9695 45.5578 42.9695H45.0752C42.8004 42.9695 41.6216 36.1999 41.6262 33.8721C41.6262 33.416 41.7179 32.3461 41.3217 32.3461C41.1826 32.3461 41.139 32.3855 41.139 32.5256V43.5166C41.139 44.1212 42.1261 43.0384 42.2742 42.8899C42.4877 42.6747 42.9748 42.1882 43.2575 42.114C43.5318 42.5216 43.8446 42.9467 44.2626 43.2362C44.9497 43.7143 45.3285 43.806 45.9066 43.8196H46.6246C47.6725 43.7712 48.7513 42.921 49.3346 42.1314C51.2005 39.6059 50.3179 35.577 49.2301 32.9818C48.5475 31.3466 48.0995 30.4434 47.2989 28.8211C46.6163 27.4488 45.9465 26.1114 45.3195 24.7134C44.7542 23.4374 43.262 20.0488 44.2535 18.3871C44.8497 17.3831 45.9848 17.3786 46.7892 18.225C47.9025 19.3911 48.4859 22.7585 48.755 24.3626C48.9114 25.3143 48.9896 26.2744 49.1941 27.1556H49.4985C49.5684 27.0063 49.6158 26.8881 49.6158 26.6646V17.2035C49.6158 16.6027 48.6242 17.734 47.4365 18.3651C47.0538 17.7908 46.1141 17.0194 45.2571 17.0194C44.4046 17.0194 43.9085 17.0717 43.1778 17.6112C41.7697 18.6546 41.0781 20.2724 41.0781 22.272Z" fill="white"/>
<path fill-rule="evenodd" clip-rule="evenodd" d="M55.1923 17.6946V43.1536H53.6783C53.4174 43.1536 53.4174 43.5787 53.6783 43.5787H60.0937C60.2809 43.5787 60.3027 43.4734 60.3373 43.3332C60.1328 43.0218 59.7803 43.1536 58.8233 43.1536V17.6946C59.5149 17.6946 59.7712 17.765 60.0539 18.3432C60.9673 20.1799 61.5371 23.3715 61.8589 25.3143C61.9416 25.8144 61.9897 26.3183 62.0678 26.8752C62.1505 27.4405 62.0333 28.0414 62.155 28.5589C62.1814 28.568 62.6377 28.765 62.6377 28.3748V17.3877C62.6377 17.2475 62.5941 17.2036 62.4595 17.2036H51.4952C51.3561 17.2036 51.3125 17.2475 51.3125 17.3877V28.2558C51.3125 28.6764 51.8733 28.931 51.8605 28.0149C51.856 27.6375 51.8778 27.4314 51.9086 27.1427C52.1522 24.9817 52.9047 19.992 53.9444 18.2689C54.2135 17.8128 54.5097 17.6946 55.1923 17.6946Z" fill="white"/>
<path fill-rule="evenodd" clip-rule="evenodd" d="M66.5664 19.1456L65.9229 24.1739C65.6486 26.432 65.323 28.6589 65.0659 30.8821C64.8134 33.1356 64.4615 35.358 64.2135 37.5941C64.1526 38.1594 64.0789 38.6943 64 39.2687C63.8609 40.2416 63.791 41.5836 63.3692 42.4209C63.0257 43.1005 62.5821 42.9732 62.2168 43.1528V43.5165C62.8039 43.6567 64.7006 43.5779 65.4268 43.5779C65.6658 43.5779 65.7621 43.2362 65.4787 43.1043C65.1434 42.9467 64.2127 43.0301 64.2127 41.4381C64.2127 40.6228 64.5781 38.7504 64.5781 38.2026H67.7271C67.7271 38.6148 67.7572 39.0618 67.8144 39.4612L68.1496 43.1528H67.1844C67.119 43.4294 67.119 43.2976 67.1844 43.5779L72.2738 43.5825C72.6173 43.5825 72.6827 43.6135 72.7564 43.3324C72.5782 43.0695 72.5429 43.1528 71.7866 43.1528C71.7866 42.6444 70.2598 30.3419 70.2598 30.3419C69.9989 28.2285 69.7208 26.0538 69.4855 23.9193L68.8067 18.3121C68.7067 17.4657 69.0593 17.6279 66.9408 17.6279C66.6491 17.6286 66.6491 18.5584 66.5664 19.1456ZM66.3973 24.7748C66.3973 26.0508 67.1889 32.706 67.3062 34.4813C67.358 35.2921 67.6061 37.0372 67.6061 37.7169H64.6397L66.2755 24.7748H66.3973Z" fill="white"/>
<path fill-rule="evenodd" clip-rule="evenodd" d="M76.5706 17.6946V43.1536H75.0566C74.8002 43.1536 74.8002 43.5787 75.0566 43.5787H81.4765C81.6592 43.5787 81.681 43.4734 81.7201 43.3332C81.5111 43.0218 81.1593 43.1536 80.2023 43.1536V17.6946C80.8984 17.6946 81.1503 17.765 81.4375 18.3432C81.8118 19.1017 81.9201 19.4919 82.1509 20.2458L82.6944 22.3895C83.0688 24.2088 83.1943 25.0817 83.4514 26.8745C83.5296 27.4398 83.4168 28.0406 83.5341 28.5582C83.5649 28.5673 84.0212 28.7643 84.0212 28.374V17.3869C84.0212 17.2467 83.9776 17.2028 83.8386 17.2028H72.878C72.7389 17.2028 72.6953 17.2467 72.6953 17.3869V28.2558C72.6953 28.6764 73.2524 28.931 73.2433 28.0149C73.2343 27.3269 73.396 26.1516 73.4997 25.525C73.8087 23.6397 74.3695 19.8564 75.3219 18.2689C75.5963 17.8128 75.8918 17.6946 76.5706 17.6946Z" fill="white"/>
<path fill-rule="evenodd" clip-rule="evenodd" d="M173.918 22.9161C173.662 25.3098 173.297 27.6906 173.044 30.0888C172.922 31.255 172.762 32.4431 172.605 33.6357L171.944 39.024C171.832 40.0454 171.705 42.4482 170.853 42.9301C170.609 43.0703 170.205 43.0044 170.188 43.2544V43.4294C170.197 43.5257 170.227 43.5787 170.361 43.5787H173.279C173.428 43.5787 173.858 43.2279 173.058 43.0172C171.392 42.5785 172.462 39.7946 172.462 38.2299H175.493C175.502 38.5807 175.593 39.0717 175.611 39.4445C175.659 40.5584 175.902 41.9041 175.902 43.1536C175.045 43.1536 174.972 43.0657 174.972 43.3946C174.972 43.5348 175.011 43.5787 175.145 43.5787H180.16C180.338 43.5787 180.36 43.4688 180.395 43.3332C180.221 43.0703 180.19 43.1536 179.46 43.1536L176.593 18.3697C176.571 18.1545 176.501 17.7908 176.484 17.5673C176.158 17.5673 174.762 17.4794 174.614 17.6241C174.497 17.7423 174.405 19.0486 174.361 19.3646C174.202 20.5573 174.045 21.7416 173.918 22.9161ZM174.154 24.4376H174.21C174.21 25.0423 174.288 25.5333 174.332 26.1342C174.371 26.6426 174.475 27.2609 174.502 27.7785C174.624 30.0668 175.063 33.5569 175.267 36.0999C175.306 36.6083 175.398 37.2395 175.437 37.7442H172.519L173.763 27.7967C173.833 27.2928 173.906 26.6434 173.967 26.1266L174.154 24.4376Z" fill="white"/>
<path fill-rule="evenodd" clip-rule="evenodd" d="M181.932 21.2984C181.31 23.2844 181.153 25.8357 181.153 28.4445C181.153 30.5707 181.101 32.5567 181.209 34.6435C181.322 36.8091 181.227 37.4403 181.875 39.7863C182.24 41.1237 182.901 42.5831 184.054 43.3461C184.459 43.6136 184.958 43.7757 185.467 43.8197H186.003C186.381 43.7848 186.755 43.684 187.081 43.4954C187.664 43.1711 188.256 42.1936 188.604 41.6192C188.708 41.448 188.804 41.3646 188.852 41.1456L189.674 43.2021C189.748 43.3953 189.835 43.8204 190.074 43.8204C190.209 43.8204 190.252 43.7765 190.252 43.6363V31.8467C191.109 31.8467 191.183 31.9346 191.183 31.6058C191.183 31.4171 191.013 31.3648 190.835 31.3648H186.285C186.046 31.3648 185.972 31.4573 185.876 31.6058C186.042 31.9301 185.881 31.8467 186.985 31.8467V41.3866C186.985 42.0617 186.793 43.3332 186.05 43.3332C185.567 43.3332 184.828 43.2847 184.828 42.3603V19.0888C184.828 18.6592 184.919 18.3303 185.054 18.0545C185.328 17.4892 185.685 17.5067 186.111 17.5067C187.611 17.5067 188.298 20.7945 188.507 21.878C188.86 23.711 188.89 24.7407 189.107 26.3539C189.177 26.876 189.138 27.5156 189.316 27.8975H189.608C189.761 27.2223 189.664 18.7478 189.664 17.3271C189.664 17.1869 189.625 17.143 189.491 17.143C189.225 17.143 188.407 18.6471 188.151 18.8441C188.025 18.6471 187.925 18.4538 187.79 18.2477C187.473 17.7522 186.672 17.0202 185.994 17.0202H185.467C183.563 17.0194 182.424 19.7291 181.932 21.2984Z" fill="white"/>
<path fill-rule="evenodd" clip-rule="evenodd" d="M192.931 17.69V43.1536C192.04 43.1536 191.787 43.0309 191.592 43.3332C191.626 43.4688 191.648 43.5787 191.826 43.5787H201.448V32.9432C201.448 32.6666 201.361 32.5795 201.156 32.5795C200.774 32.5795 200.922 33.807 200.926 34.2192C200.926 34.8284 200.821 35.4467 200.752 35.9862C200.617 37.0251 200.374 38.2617 200.087 39.1823C199.756 40.2257 199.447 41.0153 198.917 41.8526C198.673 42.2383 198.36 42.58 197.969 42.8081C197.512 43.071 197.116 43.1544 196.434 43.1544V30.7548C196.434 30.2547 197.826 30.2509 198.487 33.0477C198.596 33.5122 198.713 34.3541 198.709 34.9459C198.704 35.3096 198.709 35.6778 198.709 36.0415C198.704 36.3658 198.639 36.8917 198.939 36.8917C199.122 36.8917 199.174 36.7121 199.174 36.528V23.8898C199.174 23.7011 199.122 23.5261 198.939 23.5261C198.639 23.5261 198.705 24.0481 198.709 24.3725C198.713 25.9728 198.743 27.8315 197.825 29.1075C197.551 29.4887 197.06 29.9668 196.433 29.9668V17.69C196.925 17.69 197.851 17.6991 198.23 17.8219C199.569 18.256 200.509 22.6229 200.714 23.9815L201.04 27.1685H201.332C201.392 27.0503 201.449 26.9889 201.449 26.8048V17.3877C201.449 17.2475 201.41 17.2036 201.275 17.2036H192.059C191.584 17.2036 191.584 17.69 191.885 17.69H192.931Z" fill="white"/>
<path fill-rule="evenodd" clip-rule="evenodd" d="M204.358 21.465C205.18 25.7788 205.868 30.3828 206.681 34.7185L208.212 43.5787H210.896V19.3911C210.896 18.1462 211.261 17.9795 211.931 17.6726C212.109 17.5938 212.062 17.6377 212.179 17.5059C212.131 17.2869 212.088 17.2036 211.831 17.2036C211.435 17.2036 209.221 17.1687 208.999 17.2301C208.664 17.3309 208.878 17.1816 208.795 17.3877C208.782 17.4097 208.682 17.3309 208.769 17.5938C208.817 17.734 208.82 17.7037 208.925 17.734C209.125 17.8044 209.869 17.6067 210.199 18.2954C210.46 18.8304 210.373 19.8647 210.373 20.6671L210.312 35.9809C210.312 35.6036 210.199 35.1216 210.134 34.7708L209.503 31.233C209.25 29.6372 208.924 28.0982 208.672 26.5115C208.42 24.9461 208.115 23.3859 207.837 21.7856C207.698 20.9657 207.567 20.2512 207.42 19.4267L207.111 17.6862C207.072 17.4627 207.085 17.2043 206.872 17.2043H202.849C202.422 17.2043 202.309 17.6908 202.675 17.6908H203.606V40.9054C203.606 43.7507 202.322 42.7997 202.322 43.3953C202.322 43.5355 202.361 43.5795 202.496 43.5795H205.528C205.71 43.5795 205.706 43.4916 205.706 43.3339C205.706 42.7331 204.223 43.6757 204.131 41.8783C203.996 39.3005 204.07 35.1883 204.07 32.5181V20.0011H204.131C204.132 20.3731 204.288 21.1013 204.358 21.465Z" fill="white"/>
<path fill-rule="evenodd" clip-rule="evenodd" d="M215.928 17.6461C213.401 19.8647 213.113 26.2789 213.113 29.5978C213.113 32.9871 213.083 36.1612 213.81 39.2649C214.24 41.0842 215.006 43.8204 217.311 43.8204H217.372H217.633C218.094 43.8159 218.446 43.7855 218.934 43.5044C219.086 43.4165 219.229 43.3294 219.36 43.2195C221.852 41.1676 221.626 36.7788 221.626 33.5478C221.626 32.9644 221.087 32.6007 221.099 33.6092L221.104 36.165C221.104 36.5378 221.052 36.6341 221.043 36.95C220.991 38.8792 220.599 41.3957 219.19 42.68C218.355 43.443 216.784 43.5787 216.784 41.9344V18.9046C216.784 18.3174 217.12 17.5059 217.663 17.5059C218.333 17.5059 218.559 17.5059 219.073 18.1636C220.164 19.5533 220.912 22.8638 220.987 24.6172C221.026 25.6083 221.113 26.0508 221.104 27.0503C221.095 27.5852 221.012 27.7163 221.391 27.7163C221.6 27.7163 221.626 27.4443 221.626 27.2299V17.2035C221.626 16.5019 220.599 18.0893 220.425 18.3212C220.355 18.4174 220.325 18.4705 220.255 18.5712C220.129 18.7463 220.207 18.7251 219.994 18.7864C219.863 18.2735 218.725 17.0194 217.893 17.0194C217.081 17.0194 216.59 17.0679 215.928 17.6461Z" fill="white"/>
<path fill-rule="evenodd" clip-rule="evenodd" d="M223.087 17.69C223.092 18.0098 225.279 28.0937 225.501 29.0886L225.827 30.7548V43.1536H224.427C224.179 43.1536 224.179 43.5787 224.427 43.5787H230.664C230.917 43.5787 230.917 43.1536 230.664 43.1536H229.324V30.6935C229.324 30.3601 229.955 27.5981 230.038 27.1859L231.547 20.1276C231.717 19.2684 231.908 18.475 232.517 17.9181C232.712 17.7385 232.97 17.6635 233 17.3309V17.3263C232.595 17.1248 230.708 17.2036 230.142 17.2036C229.96 17.2036 229.816 17.2521 229.772 17.4225C229.646 17.9007 230.394 17.6241 230.764 18.0098C231.538 18.8206 230.895 21.118 230.664 22.1265C230.486 22.9153 230.303 23.7928 230.155 24.5733C230.051 25.1257 229.15 29.1545 229.15 29.5402C229.045 29.3652 228.519 26.8002 228.476 26.5941C228.258 25.5773 228.076 24.621 227.832 23.6216C227.432 21.9773 227.101 20.1231 226.701 18.422C226.645 18.1894 226.614 17.8787 226.528 17.69H227.924L228.111 17.4574C228.033 17.3695 227.885 17.2028 227.75 17.2028H222.679C222.47 17.2028 222.209 17.2339 222.209 17.4438C222.208 17.7688 222.278 17.69 223.087 17.69Z" fill="white"/>
<path fill-rule="evenodd" clip-rule="evenodd" d="M89.5926 29.9615V17.6946C91.2066 17.6946 91.7456 17.6067 92.3981 18.7114C93.4506 20.4868 94.0249 23.398 94.2467 25.5159C94.3076 26.0811 94.264 26.6555 94.3775 27.1556H94.682C94.7429 27.0419 94.7947 26.9806 94.7992 26.8093V17.3703C94.7992 17.243 94.7511 17.2036 94.6166 17.2036H85.1084C84.6167 17.2036 84.6167 17.6946 84.9302 17.6946H86.0172V43.1536H84.6859C84.6513 43.2892 84.6378 43.2892 84.625 43.4559C84.734 43.5302 84.734 43.5787 84.8686 43.5787H94.7985V32.9341C94.794 32.6711 94.703 32.5878 94.4985 32.5878C94.1024 32.5878 94.255 33.8244 94.255 34.2366C94.2595 35.5081 93.737 38.1602 93.3852 39.2217C92.9326 40.5766 92.4019 42.0761 91.1931 42.8126C90.7541 43.0847 90.2669 43.1544 89.5926 43.1544V31.0011C89.5926 29.8395 91.2713 30.6897 91.7674 33.1447C91.9373 33.9737 92.02 35.2489 92.0155 36.1302C92.011 36.6871 91.8629 36.8622 92.3763 36.8622C92.4109 36.7265 92.4372 36.722 92.4372 36.5598V23.7973C92.4372 23.6306 92.4109 23.6306 92.3763 23.4905C91.9629 23.4905 92.011 23.3851 92.0155 24.2838C92.0155 24.6649 92.0328 25.0552 91.9809 25.4106C91.929 25.7568 91.9546 26.1994 91.911 26.5024C91.7283 27.8353 91.2194 29.9615 89.5926 29.9615Z" fill="white"/>
<path fill-rule="evenodd" clip-rule="evenodd" d="M103.156 23.0608C103.195 24.3012 103.608 28.3392 103.743 29.65L103.935 31.9301C103.961 32.3688 104.013 32.8901 104.061 33.3728C104.209 34.7761 104.539 38.02 104.592 39.296L104.866 42.2769C105.075 43.728 104.622 43.5787 106.149 43.5787C106.375 43.5787 106.363 43.2718 106.393 43.0392C106.911 38.9618 107.323 34.2927 107.776 30.1933C107.828 29.7289 107.902 29.1628 107.941 28.6718L108.433 24.0989C108.489 23.6299 108.559 23.0601 108.603 22.5774C108.647 22.0735 108.725 21.534 108.773 21.0604C108.829 20.5254 108.904 20.039 108.904 19.4995L108.965 43.0952C108.338 43.0952 107.768 42.9816 107.768 43.3362C107.768 43.4764 107.864 43.5772 108.008 43.5772H112.796C113.053 43.5772 113.053 43.0952 112.796 43.0952H111.896V17.5718C112.522 17.5718 113.092 17.6855 113.092 17.3308C113.092 17.1422 112.892 17.0368 112.692 17.0285H108.955C108.699 17.0414 108.742 17.5809 108.707 17.8575C108.429 20.0761 108.211 22.6448 107.92 24.7892C107.829 25.4552 107.764 26.069 107.703 26.7404C107.642 27.3761 107.525 28.0823 107.469 28.7355C107.373 29.8622 107.047 31.8088 107.047 32.7166C106.851 32.4885 106.955 32.3968 106.886 31.8573L106.63 28.8582C106.586 27.8148 106.316 25.9076 106.269 24.8733C106.23 23.8958 105.999 21.9666 105.916 20.8884L105.616 17.3899C105.607 17.1838 105.647 17.0391 105.446 17.0308H101.697C101.524 17.0353 101.362 17.0967 101.362 17.2717C101.362 17.6574 101.323 17.5741 102.38 17.5741V41.529C102.38 43.2392 101.249 42.9058 101.24 43.3968V43.4059C101.253 43.6954 102.049 43.581 102.619 43.581H104.237C104.45 42.6868 103.776 43.2612 103.262 42.871C102.997 42.6649 102.858 42.1784 102.858 41.7139V32.4741V20.1057H102.919C102.917 21.1362 103.125 22.0962 103.156 23.0608Z" fill="white"/>
<path fill-rule="evenodd" clip-rule="evenodd" d="M117.308 26.1736C117.434 27.0503 117.63 30.0888 117.704 31.0837C117.796 32.3112 118.239 36.5682 118.239 37.6646H115.726L117.104 24.6301C117.3 24.8582 117.213 25.5204 117.308 26.1736ZM116.808 23.9731C116.552 26.6608 116.129 29.6682 115.907 32.2991C115.856 32.8689 115.773 33.413 115.725 33.9828C115.625 35.1095 115.468 36.2188 115.359 37.3585C115.247 38.5769 115.042 41.1593 114.655 42.2602C114.411 42.9528 114.19 42.8255 113.629 43.0975V43.5181C114.19 43.6499 115.66 43.5795 116.325 43.5795C116.517 43.5795 116.565 43.4347 116.565 43.2771C116.565 42.7338 115.364 43.4219 115.364 41.3479L115.573 39.0202C115.603 38.7921 115.66 38.3973 115.665 38.2094H118.357L118.601 41.8874C118.627 42.2034 118.71 42.7816 118.718 43.0975C118.261 43.0975 117.822 43.0051 117.822 43.3385C117.822 43.4787 117.922 43.5795 118.061 43.5795H122.428C122.75 43.5795 122.75 43.0975 122.428 43.0975H121.832L120.522 30.2957C120.301 28.1384 120.101 26.0039 119.865 23.8989C119.744 22.7986 119.678 21.7636 119.539 20.6679L119.196 17.4544C117.099 17.4544 117.586 17.121 117.36 18.9191L116.808 23.9731Z" fill="white"/>
<path fill-rule="evenodd" clip-rule="evenodd" d="M124.108 17.5718V43.0968C122.99 43.0968 123.029 43.0089 123.029 43.3991C123.029 43.5347 123.073 43.5787 123.208 43.5787H127.996C128.257 43.5787 128.257 43.0968 127.996 43.0968H127.217V30.2426C128.065 30.2426 128.732 30.1418 128.979 31.1238C129.188 31.9611 129.057 40.0105 129.071 41.532C129.083 42.7467 129.788 43.8204 130.989 43.8204C131.702 43.8204 132.146 43.8249 132.738 43.3468C133.743 42.536 134.104 41.1502 134.104 39.7165C134.104 39.4096 134.06 39.1816 133.804 39.1119C133.56 39.2786 133.577 39.4627 133.565 40.0196C133.56 40.3265 133.491 40.7387 133.438 41.0365C133.312 41.7685 133.16 42.5535 132.486 42.5535C132.072 42.5535 132.19 41.2774 132.19 40.8039L132.173 34.6049C131.986 33.1758 131.847 32.5226 131.103 31.58C130.155 30.379 129.494 30.4229 128.672 29.9888L128.598 29.9403C128.99 29.8478 129.829 29.3485 130.155 29.0984C132.247 27.4981 132.635 23.5132 131.939 20.9657C131.578 19.6457 130.825 18.2697 129.633 17.5506C128.976 17.1558 128.363 17.0376 127.367 17.0285H123.426C123.253 17.033 123.091 17.0944 123.091 17.2695C123.091 17.4316 123.117 17.4362 123.147 17.5718H124.108ZM127.218 29.6417V17.5718C128.51 17.5718 129.076 17.5673 129.076 18.8387V28.1331C129.076 28.7991 128.762 29.641 128.119 29.641H127.218V29.6417Z" fill="white"/>
<path fill-rule="evenodd" clip-rule="evenodd" d="M135.777 17.5718V43.0968H134.82C134.728 43.4825 134.737 43.2104 134.82 43.5787H138.891C139.257 43.5787 140.031 43.7143 140.031 43.3377C140.031 42.9824 139.483 43.0968 138.891 43.0968V31.2678C138.935 31.3383 138.891 31.233 138.948 31.3906C139.179 32.0657 140.57 38.5981 140.949 40.1151L141.645 43.096C140.684 43.096 140.566 42.9733 140.566 43.3984C140.566 43.534 140.61 43.5779 140.749 43.5779H145.416C145.677 43.5779 145.677 43.096 145.416 43.096H144.759L144.385 41.3555C144.258 40.8031 144.136 40.2242 144.006 39.6279C143.119 35.5771 142.158 31.4906 141.301 27.4526L141.118 26.6108C141.026 26.216 140.826 25.7561 140.944 25.3787L143.041 19.4601C143.258 18.9032 143.698 17.7681 144.363 17.5968C144.742 17.5006 145.177 17.6756 145.177 17.268C145.177 17.071 144.942 17.0316 144.733 17.027H141.55C141.306 17.0316 141.106 17.0793 141.106 17.3293C141.106 17.8469 142.054 17.1801 142.419 18.2371C142.772 19.2585 142.171 20.8286 141.789 21.8189L139.509 28.4475C139.392 28.7453 139.318 28.9871 139.214 29.2977C139.14 29.5258 139.022 29.9335 138.892 30.1221V17.5718C139.453 17.5718 139.971 17.6771 139.971 17.3309C139.971 17.1907 139.819 17.0369 139.679 17.0285H135.147C134.938 17.0331 134.703 17.0725 134.703 17.2695C134.703 17.6597 134.664 17.5718 135.777 17.5718Z" fill="white"/>
<path fill-rule="evenodd" clip-rule="evenodd" d="M147.095 17.5718V43.0968C145.916 43.0968 145.955 43.0043 145.955 43.3991C145.955 43.5347 145.999 43.5787 146.133 43.5787H154.637V32.7151C154.637 32.5794 154.594 32.5355 154.455 32.5355C154.085 32.5355 154.216 33.4652 154.22 34.1093C154.22 34.6314 154.133 35.3103 154.064 35.8195C153.82 37.582 153.163 41.6768 151.672 42.7027C151.233 43.0005 150.906 43.0975 150.206 43.0975V30.7859C150.206 29.966 151.628 30.3957 152.072 33.1311C152.259 34.2881 152.25 34.9064 152.241 36.0991C152.237 36.5553 152.163 36.8091 152.602 36.8182C152.632 36.6863 152.659 36.6826 152.659 36.5204V23.6049C152.659 23.4427 152.632 23.4382 152.602 23.3025C152.163 23.3154 152.237 23.5746 152.241 24.0262C152.25 25.1044 152.263 26.2357 152.068 27.2314C151.885 28.1694 151.372 29.8221 150.206 29.8221V17.5718C151.903 17.5718 152.094 17.5809 152.642 18.6766C153.334 20.0617 153.812 22.3728 154.034 23.9724C154.104 24.4634 154.243 26.8487 154.339 27.0457C154.6 27.0366 154.639 27.0063 154.639 26.7434V17.0285H146.305C146.17 17.0376 146.018 17.1907 146.018 17.3308C146.017 17.6771 146.534 17.5718 147.095 17.5718Z" fill="white"/>
<path fill-rule="evenodd" clip-rule="evenodd" d="M25.7716 38.6163V16.0814C25.7716 15.038 25.5581 13.7006 26.4978 13.0739C26.994 12.7451 27.2721 12.7716 28.0592 12.7716H50.4118C50.3946 12.57 50.0638 12.2366 49.9375 12.079L47.2409 9.11552L47.2064 9.08445L46.5584 8.46614C46.4975 8.41386 46.4666 8.3737 46.4103 8.31687L46.093 8.03196C46.0231 7.96604 45.9975 7.96149 45.9276 7.90012C45.1097 7.1636 44.2309 6.46649 43.3221 5.84363C43.2003 5.76483 43.1131 5.69436 42.9913 5.61101L41.9306 4.9101C40.9563 4.2918 39.9474 3.75305 38.916 3.23097C38.3981 2.97258 37.8636 2.72253 37.3155 2.50355C36.7675 2.28002 36.2368 2.06103 35.6406 1.85038C33.5222 1.10477 31.3391 0.539505 29.0598 0.262933L26.9331 0.0659227C26.5933 0.0348557 26.1716 0.0128814 25.719 0H23.7486C23.4134 0.0128814 23.1051 0.031067 22.848 0.0613763L21.7911 0.131845C20.3425 0.259144 18.8592 0.500103 17.4632 0.85548L16.1191 1.20631C14.7968 1.55259 13.9751 1.92994 12.7828 2.35503C12.6219 2.40732 12.5302 2.45581 12.3784 2.51719L11.5958 2.86347C11.4612 2.92939 11.3349 2.98168 11.2086 3.04305L9.36459 3.99022C8.80379 4.26603 7.33787 5.17758 6.75526 5.60722C5.76745 6.33919 5.36301 6.61576 4.35416 7.43108C4.24515 7.52352 4.17599 7.58869 4.0715 7.68113L3.76253 7.93952C3.54903 8.10167 3.37086 8.32066 3.1709 8.47902L2.57927 9.01853C2.2921 9.29889 1.85758 9.69821 1.60048 10.0051L0.391664 11.3645C0.243568 11.5478 0 11.785 0 12.1002V12.1093C0 12.3813 0.060892 12.6178 0.256348 12.8155C0.682592 13.2497 1.3306 13.1133 1.67867 12.6579C1.98764 12.2503 2.34848 11.86 2.70932 11.4963C2.81381 11.391 2.8702 11.3296 2.97018 11.2197L3.24006 10.9257L3.50543 10.6583C3.5573 10.606 3.58812 10.5749 3.63999 10.5264L3.66179 10.509L3.71366 10.465L3.73095 10.4522L4.06999 10.1233C4.18727 10.0051 4.23989 9.96115 4.36543 9.85582C4.65711 9.61032 4.92248 9.31632 5.22243 9.0799C5.3352 8.99655 5.42691 8.90866 5.5314 8.82152L6.1313 8.32596C6.2358 8.24716 6.33578 8.17669 6.43576 8.09788L7.06197 7.6243C7.79719 7.06282 8.5933 6.56348 9.38038 6.08535C10.072 5.66481 10.7937 5.292 11.5161 4.92829L11.8724 4.74871C11.9987 4.68279 12.1205 4.63884 12.2596 4.56913C13.2429 4.06902 14.3645 3.68334 15.4087 3.33251C16.3785 3.00365 17.4008 2.74905 18.4059 2.50809C18.554 2.47324 18.7367 2.44672 18.8758 2.41565C19.5065 2.27092 20.1026 2.18303 20.7507 2.09589L21.7204 1.97313C22.4308 1.89433 23.0706 1.84129 23.7795 1.84129C23.993 1.84129 24.0576 1.80189 24.2756 1.80643C24.741 1.80643 25.3153 1.77158 25.7461 1.82841C26.1813 1.88978 26.6857 1.84129 27.1075 1.89888C27.8472 1.99511 28.5734 1.98677 29.2951 2.1315C30.113 2.29366 30.9264 2.39443 31.7225 2.59599C33.641 3.087 34.9761 3.49466 36.7983 4.26603L37.7816 4.70855C38.5469 5.02452 39.2603 5.47158 39.9865 5.86182C40.4 6.08535 40.7909 6.34373 41.1781 6.60288L41.7652 6.98023C42.335 7.36591 42.9131 7.76069 43.4401 8.19866L45.763 10.2067C45.9893 10.4393 46.3238 10.6674 46.4982 10.9341C40.2436 10.9341 33.9845 10.9689 27.7254 10.9341C27.3774 10.9295 26.812 10.9864 26.5377 11.0697C25.4807 11.4031 24.6327 12.104 24.211 13.1739C24.002 13.7043 23.9802 13.9718 23.9802 14.7129C23.9802 22.9464 23.9494 31.1845 23.9802 39.418C23.9847 40.0272 23.8802 40.4705 23.6584 40.869C22.5188 42.9339 19.3479 42.4913 18.9525 40.0401C18.8262 39.2687 19.1006 37.2388 18.8307 36.6553C18.4608 35.8619 17.1167 36.0809 17.1167 37.0107V39.7203C17.1167 40.3735 17.2903 40.9304 17.473 41.3949C17.6685 41.8814 18.0383 42.4474 18.4383 42.7982C18.9645 43.2498 19.5125 43.6401 20.1996 43.8325C20.5349 43.925 20.8785 43.9818 21.222 43.9992H21.6828C22.5744 43.9553 23.4442 43.6484 24.1493 43.0695C24.2493 42.9861 24.2839 42.9339 24.3974 42.8505C24.7019 42.6096 25.0326 42.136 25.2198 41.8026C25.8107 40.7296 25.7716 39.8916 25.7716 38.6163Z" fill="white"/>
<path fill-rule="evenodd" clip-rule="evenodd" d="M159.435 17.515V43.1013H158.766H158.531H157.913C157.657 43.1013 157.657 43.5264 157.913 43.5264H163.081H164.368C164.551 43.5264 164.573 43.4211 164.612 43.2855C164.398 42.9695 164.047 43.1013 163.09 43.1013V18.4879V17.515C163.786 17.515 164.038 17.5893 164.325 18.1682C164.703 18.9312 164.812 19.3252 165.043 20.0837L165.169 20.5838L165.586 22.2364C165.964 24.0648 166.091 24.9415 166.348 26.7434C166.43 27.3132 166.318 27.9141 166.435 28.4354C166.465 28.4445 166.922 28.6415 166.922 28.2513V17.2081C166.922 17.0679 166.878 17.024 166.739 17.024H155.722C155.683 17.024 155.648 17.0285 155.622 17.0369C155.561 17.0588 155.539 17.1111 155.539 17.2081V28.1293C155.539 28.3574 155.7 28.5324 155.848 28.5105C155.974 28.493 156.096 28.3172 156.092 27.8876C156.083 27.1996 156.248 26.0198 156.348 25.3886C156.661 23.4943 157.222 19.6935 158.184 18.0931C158.345 17.8257 158.514 17.6726 158.766 17.593C158.94 17.537 159.153 17.515 159.435 17.515Z" fill="white"/>
</svg>
