<svg width="265" height="257" viewBox="0 0 265 257" fill="none" xmlns="http://www.w3.org/2000/svg">
<ellipse rx="10.5" ry="10" transform="matrix(-1 0 0 1 51.5 10)" fill="white"/>
<ellipse rx="10.5" ry="10" transform="matrix(1 8.74228e-08 8.74228e-08 -1 213.5 247)" fill="white"/>
<ellipse rx="10.5" ry="10" transform="matrix(-1 0 0 1 92.5 10)" fill="white"/>
<ellipse rx="10.5" ry="10" transform="matrix(1 8.74228e-08 8.74228e-08 -1 172.5 247)" fill="white"/>
<circle r="10.5" transform="matrix(-1 0 0 1 10.5 94.5)" fill="white"/>
<circle r="10.5" transform="matrix(1 8.74228e-08 8.74228e-08 -1 254.5 162.5)" fill="white"/>
<ellipse rx="10.5" ry="10" transform="matrix(-1 0 0 1 10.5 10)" fill="white"/>
<ellipse rx="10.5" ry="10" transform="matrix(1 8.74228e-08 8.74228e-08 -1 254.5 247)" fill="white"/>
<ellipse rx="10.5" ry="10" transform="matrix(-1 0 0 1 10.5 52)" fill="white"/>
<ellipse rx="10.5" ry="10" transform="matrix(1 8.74228e-08 8.74228e-08 -1 254.5 205)" fill="white"/>
<circle r="10.5" transform="matrix(-1 0 0 1 174.5 168.5)" fill="#22C144"/>
<ellipse rx="10.5" ry="10" transform="matrix(-1 0 0 1 174.5 84)" fill="#22C144"/>
<ellipse rx="10.5" ry="10" transform="matrix(-1 0 0 1 174.5 126)" fill="#22C144"/>
<ellipse rx="10" ry="10.5" transform="matrix(-1 0 0 1 93 168.5)" fill="#22C144"/>
<circle r="10" transform="matrix(-1 0 0 1 93 84)" fill="#22C144"/>
<circle r="10" transform="matrix(-1 0 0 1 93 126)" fill="#22C144"/>
<circle r="10.5" transform="matrix(-1 0 0 1 133.5 168.5)" fill="#22C144"/>
<ellipse rx="10.5" ry="10" transform="matrix(-1 0 0 1 133.5 84)" fill="#22C144"/>
<ellipse rx="10.5" ry="10" transform="matrix(-1 0 0 1 133.5 126)" fill="#22C144"/>
</svg>
