<svg width="227" height="331" viewBox="0 0 227 331" fill="none" xmlns="http://www.w3.org/2000/svg">
<path d="M206 215.5C206 221.299 210.701 226 216.5 226C222.299 226 227 221.299 227 215.5C227 209.701 222.299 205 216.5 205C210.701 205 206 209.701 206 215.5Z" fill="white"/>
<path d="M125 215.5C125 221.299 129.477 226 135 226C140.523 226 145 221.299 145 215.5C145 209.701 140.523 205 135 205C129.477 205 125 209.701 125 215.5Z" fill="white"/>
<path d="M125 252.5C125 258.299 129.477 263 135 263C140.523 263 145 258.299 145 252.5C145 246.701 140.523 242 135 242C129.477 242 125 246.701 125 252.5Z" fill="white"/>
<path d="M125 287.5C125 293.299 129.477 298 135 298C140.523 298 145 293.299 145 287.5C145 281.701 140.523 277 135 277C129.477 277 125 281.701 125 287.5Z" fill="white"/>
<path d="M103 320.5C103 326.299 107.701 331 113.5 331C119.299 331 124 326.299 124 320.5C124 314.701 119.299 310 113.5 310C107.701 310 103 314.701 103 320.5Z" fill="white"/>
<path d="M41 215.5C41 221.299 45.701 226 51.5 226C57.299 226 62 221.299 62 215.5C62 209.701 57.299 205 51.5 205C45.701 205 41 209.701 41 215.5Z" fill="white"/>
<path d="M41 252.5C41 258.299 45.701 263 51.5 263C57.299 263 62 258.299 62 252.5C62 246.701 57.299 242 51.5 242C45.701 242 41 246.701 41 252.5Z" fill="white"/>
<path d="M165 215.5C165 221.299 169.701 226 175.5 226C181.299 226 186 221.299 186 215.5C186 209.701 181.299 205 175.5 205C169.701 205 165 209.701 165 215.5Z" fill="white"/>
<path d="M165 252.5C165 258.299 169.701 263 175.5 263C181.299 263 186 258.299 186 252.5C186 246.701 181.299 242 175.5 242C169.701 242 165 246.701 165 252.5Z" fill="white"/>
<path d="M82 215.5C82 221.299 86.701 226 92.5 226C98.299 226 103 221.299 103 215.5C103 209.701 98.299 205 92.5 205C86.701 205 82 209.701 82 215.5Z" fill="white"/>
<path d="M82 252.5C82 258.299 86.701 263 92.5 263C98.299 263 103 258.299 103 252.5C103 246.701 98.299 242 92.5 242C86.701 242 82 246.701 82 252.5Z" fill="white"/>
<path d="M82 287.5C82 293.299 86.701 298 92.5 298C98.299 298 103 293.299 103 287.5C103 281.701 98.299 277 92.5 277C86.701 277 82 281.701 82 287.5Z" fill="white"/>
<path d="M0 215.5C0 221.299 4.70101 226 10.5 226C16.299 226 21 221.299 21 215.5C21 209.701 16.299 205 10.5 205C4.70101 205 0 209.701 0 215.5Z" fill="white"/>
<path d="M206 173.5C206 179.299 210.701 184 216.5 184C222.299 184 227 179.299 227 173.5C227 167.701 222.299 163 216.5 163C210.701 163 206 167.701 206 173.5Z" fill="white"/>
<path d="M206 89.5C206 95.299 210.701 100 216.5 100C222.299 100 227 95.299 227 89.5C227 83.701 222.299 79 216.5 79C210.701 79 206 83.701 206 89.5Z" fill="white"/>
<path d="M206 131.5C206 137.299 210.701 142 216.5 142C222.299 142 227 137.299 227 131.5C227 125.701 222.299 121 216.5 121C210.701 121 206 125.701 206 131.5Z" fill="white"/>
<path d="M206 47C206 52.5228 210.701 57 216.5 57C222.299 57 227 52.5228 227 47C227 41.4772 222.299 37 216.5 37C210.701 37 206 41.4772 206 47Z" fill="white"/>
<path d="M125 173.5C125 179.299 129.477 184 135 184C140.523 184 145 179.299 145 173.5C145 167.701 140.523 163 135 163C129.477 163 125 167.701 125 173.5Z" fill="white"/>
<path d="M125 89.5C125 95.299 129.477 100 135 100C140.523 100 145 95.299 145 89.5C145 83.701 140.523 79 135 79C129.477 79 125 83.701 125 89.5Z" fill="white"/>
<path d="M125 131.5C125 137.299 129.477 142 135 142C140.523 142 145 137.299 145 131.5C145 125.701 140.523 121 135 121C129.477 121 125 125.701 125 131.5Z" fill="white"/>
<path d="M125 47C125 52.5228 129.477 57 135 57C140.523 57 145 52.5228 145 47C145 41.4772 140.523 37 135 37C129.477 37 125 41.4772 125 47Z" fill="white"/>
<path d="M41 173.5C41 179.299 45.701 184 51.5 184C57.299 184 62 179.299 62 173.5C62 167.701 57.299 163 51.5 163C45.701 163 41 167.701 41 173.5Z" fill="white"/>
<path d="M41 89.5C41 95.299 45.701 100 51.5 100C57.299 100 62 95.299 62 89.5C62 83.701 57.299 79 51.5 79C45.701 79 41 83.701 41 89.5Z" fill="white"/>
<path d="M41 131.5C41 137.299 45.701 142 51.5 142C57.299 142 62 137.299 62 131.5C62 125.701 57.299 121 51.5 121C45.701 121 41 125.701 41 131.5Z" fill="white"/>
<path d="M41 47C41 52.5228 45.701 57 51.5 57C57.299 57 62 52.5228 62 47C62 41.4772 57.299 37 51.5 37C45.701 37 41 41.4772 41 47Z" fill="white"/>
<path d="M165 173.5C165 179.299 169.701 184 175.5 184C181.299 184 186 179.299 186 173.5C186 167.701 181.299 163 175.5 163C169.701 163 165 167.701 165 173.5Z" fill="white"/>
<path d="M165 89.5C165 95.299 169.701 100 175.5 100C181.299 100 186 95.299 186 89.5C186 83.701 181.299 79 175.5 79C169.701 79 165 83.701 165 89.5Z" fill="white"/>
<path d="M165 131.5C165 137.299 169.701 142 175.5 142C181.299 142 186 137.299 186 131.5C186 125.701 181.299 121 175.5 121C169.701 121 165 125.701 165 131.5Z" fill="white"/>
<path d="M165 47C165 52.5228 169.701 57 175.5 57C181.299 57 186 52.5228 186 47C186 41.4772 181.299 37 175.5 37C169.701 37 165 41.4772 165 47Z" fill="white"/>
<path d="M82 173.5C82 179.299 86.701 184 92.5 184C98.299 184 103 179.299 103 173.5C103 167.701 98.299 163 92.5 163C86.701 163 82 167.701 82 173.5Z" fill="white"/>
<path d="M82 89.5C82 95.299 86.701 100 92.5 100C98.299 100 103 95.299 103 89.5C103 83.701 98.299 79 92.5 79C86.701 79 82 83.701 82 89.5Z" fill="white"/>
<path d="M82 131.5C82 137.299 86.701 142 92.5 142C98.299 142 103 137.299 103 131.5C103 125.701 98.299 121 92.5 121C86.701 121 82 125.701 82 131.5Z" fill="white"/>
<path d="M82 47C82 52.5228 86.701 57 92.5 57C98.299 57 103 52.5228 103 47C103 41.4772 98.299 37 92.5 37C86.701 37 82 41.4772 82 47Z" fill="white"/>
<path d="M0 173.5C0 179.299 4.70101 184 10.5 184C16.299 184 21 179.299 21 173.5C21 167.701 16.299 163 10.5 163C4.70101 163 0 167.701 0 173.5Z" fill="white"/>
<path d="M0 89.5C0 95.299 4.70101 100 10.5 100C16.299 100 21 95.299 21 89.5C21 83.701 16.299 79 10.5 79C4.70101 79 0 83.701 0 89.5Z" fill="white"/>
<path d="M0 131.5C0 137.299 4.70101 142 10.5 142C16.299 142 21 137.299 21 131.5C21 125.701 16.299 121 10.5 121C4.70101 121 0 125.701 0 131.5Z" fill="white"/>
<path d="M0 47C0 52.5228 4.70101 57 10.5 57C16.299 57 21 52.5228 21 47C21 41.4772 16.299 37 10.5 37C4.70101 37 0 41.4772 0 47Z" fill="white"/>
<path d="M0 0H227V10H0V0Z" fill="#22C144"/>
</svg>
