<svg width="254" height="196" viewBox="0 0 254 196" fill="none" xmlns="http://www.w3.org/2000/svg">
<path d="M92.4251 161.558C96.5256 165.659 103.016 165.817 106.921 161.912C110.826 158.007 110.668 151.517 106.567 147.416C102.467 143.316 95.9768 143.157 92.0715 147.063C88.1663 150.968 88.3246 157.458 92.4251 161.558Z" fill="white"/>
<path d="M118.589 187.721C122.69 191.822 129.18 191.98 133.085 188.075C136.99 184.169 136.832 177.679 132.731 173.579C128.631 169.478 122.141 169.32 118.236 173.225C114.33 177.131 114.489 183.621 118.589 187.721Z" fill="white"/>
<path d="M120.71 133.274C124.811 137.374 131.459 137.374 135.559 133.274C139.66 129.173 139.66 122.525 135.559 118.425C131.459 114.324 124.811 114.324 120.71 118.425C116.61 122.525 116.61 129.173 120.71 133.274Z" fill="white"/>
<path d="M146.872 159.437C150.973 163.537 157.621 163.537 161.721 159.437C165.822 155.336 165.822 148.688 161.721 144.588C157.621 140.487 150.973 140.487 146.872 144.588C142.772 148.688 142.772 155.336 146.872 159.437Z" fill="white"/>
<path d="M0 84H254V94H0V84Z" fill="#22C144"/>
<path d="M25.8695 55.5852C25.8695 61.6243 20.9739 66.5199 14.9348 66.5199C8.89567 66.5199 4 61.6243 4 55.5852C4 49.5461 8.89567 44.6504 14.9348 44.6504C20.9739 44.6504 25.8695 49.5461 25.8695 55.5852Z" fill="white"/>
<path d="M113.344 55.5852C113.344 61.6243 108.448 66.5199 102.409 66.5199C96.3703 66.5199 91.4746 61.6243 91.4746 55.5852C91.4746 49.5461 96.3703 44.6504 102.409 44.6504C108.448 44.6504 113.344 49.5461 113.344 55.5852Z" fill="white"/>
<path d="M203.87 55.5852C203.87 61.6243 198.974 66.5199 192.935 66.5199C186.896 66.5199 182 61.6243 182 55.5852C182 49.5461 186.896 44.6504 192.935 44.6504C198.974 44.6504 203.87 49.5461 203.87 55.5852Z" fill="white"/>
<path d="M69.6059 55.5852C69.6059 61.6243 64.7102 66.5199 58.6711 66.5199C52.632 66.5199 47.7363 61.6243 47.7363 55.5852C47.7363 49.5461 52.632 44.6504 58.6711 44.6504C64.7102 44.6504 69.6059 49.5461 69.6059 55.5852Z" fill="white"/>
<path d="M157.086 55.5852C157.086 61.6243 152.191 66.5199 146.152 66.5199C140.112 66.5199 135.217 61.6243 135.217 55.5852C135.217 49.5461 140.112 44.6504 146.152 44.6504C152.191 44.6504 157.086 49.5461 157.086 55.5852Z" fill="white"/>
<path d="M247.612 55.5852C247.612 61.6243 242.716 66.5199 236.677 66.5199C230.638 66.5199 225.742 61.6243 225.742 55.5852C225.742 49.5461 230.638 44.6504 236.677 44.6504C242.716 44.6504 247.612 49.5461 247.612 55.5852Z" fill="white"/>
<path d="M25.8695 10.9348C25.8695 16.9739 20.9739 21.8695 14.9348 21.8695C8.89567 21.8695 4 16.9739 4 10.9348C4 4.89567 8.89567 0 14.9348 0C20.9739 0 25.8695 4.89567 25.8695 10.9348Z" fill="white"/>
<path d="M113.344 10.9348C113.344 16.9739 108.448 21.8695 102.409 21.8695C96.3703 21.8695 91.4746 16.9739 91.4746 10.9348C91.4746 4.89567 96.3703 0 102.409 0C108.448 0 113.344 4.89567 113.344 10.9348Z" fill="white"/>
<path d="M203.87 10.9348C203.87 16.9739 198.974 21.8695 192.935 21.8695C186.896 21.8695 182 16.9739 182 10.9348C182 4.89567 186.896 0 192.935 0C198.974 0 203.87 4.89567 203.87 10.9348Z" fill="white"/>
<path d="M69.6059 10.9348C69.6059 16.9739 64.7102 21.8695 58.6711 21.8695C52.632 21.8695 47.7363 16.9739 47.7363 10.9348C47.7363 4.89567 52.632 0 58.6711 0C64.7102 0 69.6059 4.89567 69.6059 10.9348Z" fill="white"/>
<path d="M157.086 10.9348C157.086 16.9739 152.191 21.8695 146.152 21.8695C140.112 21.8695 135.217 16.9739 135.217 10.9348C135.217 4.89567 140.112 0 146.152 0C152.191 0 157.086 4.89567 157.086 10.9348Z" fill="white"/>
<path d="M247.612 10.9348C247.612 16.9739 242.716 21.8695 236.677 21.8695C230.638 21.8695 225.742 16.9739 225.742 10.9348C225.742 4.89567 230.638 0 236.677 0C242.716 0 247.612 4.89567 247.612 10.9348Z" fill="white"/>
</svg>
