<svg width="503" height="509" viewBox="0 0 503 509" fill="none" xmlns="http://www.w3.org/2000/svg">
<circle cx="10.9348" cy="497.532" r="10.9348" fill="white"/>
<circle cx="185.892" cy="497.532" r="10.9348" fill="white"/>
<circle cx="185.892" cy="320.753" r="10.9348" fill="white"/>
<circle cx="185.892" cy="409.143" r="10.9348" fill="white"/>
<circle cx="98.4133" cy="497.532" r="10.9348" fill="white"/>
<circle cx="98.4133" cy="409.143" r="10.9348" fill="white"/>
<circle cx="273.37" cy="497.532" r="10.9348" fill="white"/>
<circle cx="273.37" cy="320.753" r="10.9348" fill="white"/>
<circle cx="273.37" cy="409.143" r="10.9348" fill="white"/>
<circle cx="273.37" cy="232.364" r="10.9348" fill="white"/>
<circle cx="360.849" cy="497.532" r="10.9348" fill="white"/>
<circle cx="448.323" cy="497.532" r="10.9348" fill="white"/>
<circle cx="360.849" cy="320.753" r="10.9348" fill="white"/>
<circle cx="448.323" cy="320.753" r="10.9348" fill="white"/>
<circle cx="360.849" cy="409.143" r="10.9348" fill="white"/>
<circle cx="448.323" cy="409.143" r="10.9348" fill="white"/>
<circle cx="360.849" cy="232.364" r="10.9348" fill="white"/>
<circle cx="360.849" cy="143.975" r="10.9348" fill="white"/>
<circle cx="448.323" cy="143.975" r="10.9348" fill="white"/>
<circle cx="448.323" cy="55.5851" r="10.9348" fill="white"/>
<circle cx="448.323" cy="232.364" r="10.9348" fill="white"/>
<circle cx="54.6711" cy="497.532" r="10.9348" fill="white"/>
<circle cx="229.63" cy="497.532" r="10.9348" fill="white"/>
<circle cx="229.63" cy="320.753" r="10.9348" fill="white"/>
<circle cx="229.63" cy="409.143" r="10.9348" fill="white"/>
<circle cx="142.15" cy="497.532" r="10.9348" fill="white"/>
<circle cx="142.15" cy="409.143" r="10.9348" fill="white"/>
<circle cx="317.107" cy="497.532" r="10.9348" fill="white"/>
<circle cx="317.107" cy="320.753" r="10.9348" fill="white"/>
<circle cx="317.107" cy="409.143" r="10.9348" fill="white"/>
<circle cx="317.107" cy="232.364" r="10.9348" fill="white"/>
<circle cx="404.585" cy="497.532" r="10.9348" fill="white"/>
<circle cx="492.066" cy="497.532" r="10.9348" fill="white"/>
<circle cx="404.585" cy="320.753" r="10.9348" fill="white"/>
<circle cx="492.066" cy="320.753" r="10.9348" fill="white"/>
<circle cx="404.585" cy="409.143" r="10.9348" fill="white"/>
<circle cx="492.066" cy="409.143" r="10.9348" fill="white"/>
<circle cx="404.585" cy="232.364" r="10.9348" fill="white"/>
<circle cx="404.585" cy="143.975" r="10.9348" fill="white"/>
<circle cx="492.066" cy="143.975" r="10.9348" fill="white"/>
<circle cx="492.066" cy="55.5851" r="10.9348" fill="white"/>
<circle cx="492.066" cy="232.364" r="10.9348" fill="white"/>
<circle cx="10.9348" cy="452.882" r="10.9348" fill="white"/>
<circle cx="185.892" cy="452.882" r="10.9348" fill="white"/>
<circle cx="185.892" cy="276.103" r="10.9348" fill="white"/>
<circle cx="185.892" cy="364.492" r="10.9348" fill="white"/>
<circle cx="98.4133" cy="452.882" r="10.9348" fill="white"/>
<circle cx="98.4133" cy="364.492" r="10.9348" fill="white"/>
<circle cx="273.37" cy="452.882" r="10.9348" fill="white"/>
<circle cx="273.37" cy="276.103" r="10.9348" fill="white"/>
<circle cx="273.37" cy="364.492" r="10.9348" fill="white"/>
<circle cx="273.37" cy="187.714" r="10.9348" fill="white"/>
<circle cx="360.849" cy="452.882" r="10.9348" fill="white"/>
<circle cx="448.323" cy="452.882" r="10.9348" fill="white"/>
<circle cx="360.849" cy="276.103" r="10.9348" fill="white"/>
<circle cx="448.323" cy="276.103" r="10.9348" fill="white"/>
<circle cx="360.849" cy="364.492" r="10.9348" fill="white"/>
<circle cx="448.323" cy="364.492" r="10.9348" fill="white"/>
<circle cx="360.849" cy="187.714" r="10.9348" fill="white"/>
<circle cx="360.849" cy="99.3242" r="10.9348" fill="white"/>
<circle cx="448.323" cy="99.3242" r="10.9348" fill="white"/>
<circle cx="448.323" cy="10.9348" r="10.9348" fill="white"/>
<circle cx="448.323" cy="187.714" r="10.9348" fill="white"/>
<circle cx="54.6711" cy="452.882" r="10.9348" fill="white"/>
<circle cx="229.63" cy="452.882" r="10.9348" fill="white"/>
<circle cx="229.63" cy="276.103" r="10.9348" fill="white"/>
<circle cx="229.63" cy="364.492" r="10.9348" fill="white"/>
<circle cx="142.15" cy="452.882" r="10.9348" fill="white"/>
<circle cx="142.15" cy="364.492" r="10.9348" fill="white"/>
<circle cx="317.107" cy="452.882" r="10.9348" fill="white"/>
<circle cx="317.107" cy="276.103" r="10.9348" fill="white"/>
<circle cx="317.107" cy="364.492" r="10.9348" fill="white"/>
<circle cx="317.107" cy="187.714" r="10.9348" fill="white"/>
<circle cx="404.585" cy="452.882" r="10.9348" fill="white"/>
<circle cx="492.066" cy="452.882" r="10.9348" fill="white"/>
<circle cx="404.585" cy="276.103" r="10.9348" fill="white"/>
<circle cx="492.066" cy="276.103" r="10.9348" fill="white"/>
<circle cx="404.585" cy="364.492" r="10.9348" fill="white"/>
<circle cx="492.066" cy="364.492" r="10.9348" fill="white"/>
<circle cx="404.585" cy="187.714" r="10.9348" fill="white"/>
<circle cx="404.585" cy="99.3242" r="10.9348" fill="white"/>
<circle cx="492.066" cy="99.3242" r="10.9348" fill="white"/>
<circle cx="492.066" cy="10.9348" r="10.9348" fill="white"/>
<circle cx="492.066" cy="187.714" r="10.9348" fill="white"/>
</svg>
